<?xml version="1.0" encoding="UTF-8" standalone="no"?>
<!DOCTYPE svg PUBLIC "-//W3C//DTD SVG 1.1//EN"
 "http://www.w3.org/Graphics/SVG/1.1/DTD/svg11.dtd">
<!-- Generated by graphviz version 2.44.1 (20200629.0846)
 -->
<!-- Title: dependencies Pages: 1 -->
<svg width="504pt" height="211pt"
 viewBox="0.00 0.00 504.00 211.00" xmlns="http://www.w3.org/2000/svg" xmlns:xlink="http://www.w3.org/1999/xlink">
<g id="graph0" class="graph" transform="scale(1 1) rotate(0) translate(4 207)">
<title>dependencies</title>
<polygon fill="white" stroke="transparent" points="-4,4 -4,-207 500,-207 500,4 -4,4"/>
<text text-anchor="start" x="227.01" y="-42.4" font-family="sans-serif" font-weight="bold" font-size="14.00">Legend</text>
<polygon fill="#ffffb3" stroke="transparent" points="14,-10 14,-30 34,-30 34,-10 14,-10"/>
<text text-anchor="start" x="37.63" y="-15.4" font-family="sans-serif" font-size="14.00"> &#160;Declarations</text>
<polygon fill="#8dd3c7" stroke="transparent" points="127,-10 127,-30 147,-30 147,-10 127,-10"/>
<text text-anchor="start" x="150.73" y="-15.4" font-family="sans-serif" font-size="14.00"> &#160;Module</text>
<polygon fill="#80b1d3" stroke="transparent" points="213,-10 213,-30 233,-30 233,-10 213,-10"/>
<text text-anchor="start" x="236.78" y="-15.4" font-family="sans-serif" font-size="14.00"> &#160;Bootstrap</text>
<polygon fill="#fdb462" stroke="transparent" points="310,-10 310,-30 330,-30 330,-10 310,-10"/>
<text text-anchor="start" x="333.67" y="-15.4" font-family="sans-serif" font-size="14.00"> &#160;Providers</text>
<polygon fill="#fb8072" stroke="transparent" points="406,-10 406,-30 426,-30 426,-10 406,-10"/>
<text text-anchor="start" x="429.73" y="-15.4" font-family="sans-serif" font-size="14.00"> &#160;Exports</text>
<g id="clust1" class="cluster">
<title>cluster_VenuesModule</title>
<polygon fill="none" stroke="black" stroke-dasharray="1,5" points="16,-70 16,-195 480,-195 480,-70 16,-70"/>
</g>
<g id="clust4" class="cluster">
<title>cluster_VenuesModule_imports</title>
<polygon fill="none" stroke="black" points="172,-78 172,-130 472,-130 472,-78 172,-78"/>
</g>
<g id="clust2" class="cluster">
<title>cluster_VenuesModule_declarations</title>
<polygon fill="none" stroke="black" points="24,-78 24,-130 164,-130 164,-78 24,-78"/>
</g>
<!-- VenuesComponent -->
<g id="node1" class="node">
<title>VenuesComponent</title>
<polygon fill="#ffffb3" stroke="black" points="155.81,-122 32.19,-122 32.19,-86 155.81,-86 155.81,-122"/>
<text text-anchor="middle" x="94" y="-99.8" font-family="Times,serif" font-size="14.00">VenuesComponent</text>
</g>
<!-- VenuesModule -->
<g id="node2" class="node">
<title>VenuesModule</title>
<polygon fill="#8dd3c7" stroke="black" points="303.53,-187 300.53,-191 279.53,-191 276.53,-187 202.47,-187 202.47,-151 303.53,-151 303.53,-187"/>
<text text-anchor="middle" x="253" y="-164.8" font-family="Times,serif" font-size="14.00">VenuesModule</text>
</g>
<!-- VenuesComponent&#45;&gt;VenuesModule -->
<g id="edge1" class="edge">
<title>VenuesComponent&#45;&gt;VenuesModule</title>
<path fill="none" stroke="black" d="M94,-122.11C94,-141.34 94,-169 94,-169 94,-169 192.25,-169 192.25,-169"/>
<polygon fill="black" stroke="black" points="192.25,-172.5 202.25,-169 192.25,-165.5 192.25,-172.5"/>
</g>
<!-- LazyCardsModule -->
<g id="node3" class="node">
<title>LazyCardsModule</title>
<polygon fill="#8dd3c7" stroke="black" points="464.19,-122 461.19,-126 440.19,-126 437.19,-122 343.81,-122 343.81,-86 464.19,-86 464.19,-122"/>
<text text-anchor="middle" x="404" y="-99.8" font-family="Times,serif" font-size="14.00">LazyCardsModule</text>
</g>
<!-- LazyCardsModule&#45;&gt;VenuesModule -->
<g id="edge2" class="edge">
<title>LazyCardsModule&#45;&gt;VenuesModule</title>
<path fill="none" stroke="black" d="M404,-122.11C404,-141.34 404,-169 404,-169 404,-169 313.7,-169 313.7,-169"/>
<polygon fill="black" stroke="black" points="313.7,-165.5 303.7,-169 313.7,-172.5 313.7,-165.5"/>
</g>
<!-- VenuesRoutingModule -->
<g id="node4" class="node">
<title>VenuesRoutingModule</title>
<polygon fill="#8dd3c7" stroke="black" points="326.15,-122 323.15,-126 302.15,-126 299.15,-122 179.85,-122 179.85,-86 326.15,-86 326.15,-122"/>
<text text-anchor="middle" x="253" y="-99.8" font-family="Times,serif" font-size="14.00">VenuesRoutingModule</text>
</g>
<!-- VenuesRoutingModule&#45;&gt;VenuesModule -->
<g id="edge3" class="edge">
<title>VenuesRoutingModule&#45;&gt;VenuesModule</title>
<path fill="none" stroke="black" d="M253,-122.11C253,-122.11 253,-140.99 253,-140.99"/>
<polygon fill="black" stroke="black" points="249.5,-140.99 253,-150.99 256.5,-140.99 249.5,-140.99"/>
</g>
</g>
</svg>
