<?xml version="1.0" encoding="UTF-8" standalone="no"?>
<!DOCTYPE svg PUBLIC "-//W3C//DTD SVG 1.1//EN"
 "http://www.w3.org/Graphics/SVG/1.1/DTD/svg11.dtd">
<!-- Generated by graphviz version 2.44.1 (20200629.0846)
 -->
<!-- Title: dependencies Pages: 1 -->
<svg width="504pt" height="211pt"
 viewBox="0.00 0.00 504.00 211.00" xmlns="http://www.w3.org/2000/svg" xmlns:xlink="http://www.w3.org/1999/xlink">
<g id="graph0" class="graph" transform="scale(1 1) rotate(0) translate(4 207)">
<title>dependencies</title>
<polygon fill="white" stroke="transparent" points="-4,4 -4,-207 500,-207 500,4 -4,4"/>
<text text-anchor="start" x="227.01" y="-42.4" font-family="sans-serif" font-weight="bold" font-size="14.00">Legend</text>
<polygon fill="#ffffb3" stroke="transparent" points="14,-10 14,-30 34,-30 34,-10 14,-10"/>
<text text-anchor="start" x="37.63" y="-15.4" font-family="sans-serif" font-size="14.00"> &#160;Declarations</text>
<polygon fill="#8dd3c7" stroke="transparent" points="127,-10 127,-30 147,-30 147,-10 127,-10"/>
<text text-anchor="start" x="150.73" y="-15.4" font-family="sans-serif" font-size="14.00"> &#160;Module</text>
<polygon fill="#80b1d3" stroke="transparent" points="213,-10 213,-30 233,-30 233,-10 213,-10"/>
<text text-anchor="start" x="236.78" y="-15.4" font-family="sans-serif" font-size="14.00"> &#160;Bootstrap</text>
<polygon fill="#fdb462" stroke="transparent" points="310,-10 310,-30 330,-30 330,-10 310,-10"/>
<text text-anchor="start" x="333.67" y="-15.4" font-family="sans-serif" font-size="14.00"> &#160;Providers</text>
<polygon fill="#fb8072" stroke="transparent" points="406,-10 406,-30 426,-30 426,-10 406,-10"/>
<text text-anchor="start" x="429.73" y="-15.4" font-family="sans-serif" font-size="14.00"> &#160;Exports</text>
<g id="clust1" class="cluster">
<title>cluster_LearningCenterModule</title>
<polygon fill="none" stroke="black" stroke-dasharray="1,5" points="39,-70 39,-195 457,-195 457,-70 39,-70"/>
</g>
<g id="clust2" class="cluster">
<title>cluster_LearningCenterModule_declarations</title>
<polygon fill="none" stroke="black" points="263,-78 263,-130 449,-130 449,-78 263,-78"/>
</g>
<g id="clust4" class="cluster">
<title>cluster_LearningCenterModule_imports</title>
<polygon fill="none" stroke="black" points="47,-78 47,-130 255,-130 255,-78 47,-78"/>
</g>
<!-- LearningCenterComponent -->
<g id="node1" class="node">
<title>LearningCenterComponent</title>
<polygon fill="#ffffb3" stroke="black" points="440.68,-122 271.32,-122 271.32,-86 440.68,-86 440.68,-122"/>
<text text-anchor="middle" x="356" y="-99.8" font-family="Times,serif" font-size="14.00">LearningCenterComponent</text>
</g>
<!-- LearningCenterModule -->
<g id="node2" class="node">
<title>LearningCenterModule</title>
<polygon fill="#8dd3c7" stroke="black" points="326.9,-187 323.9,-191 302.9,-191 299.9,-187 179.1,-187 179.1,-151 326.9,-151 326.9,-187"/>
<text text-anchor="middle" x="253" y="-164.8" font-family="Times,serif" font-size="14.00">LearningCenterModule</text>
</g>
<!-- LearningCenterComponent&#45;&gt;LearningCenterModule -->
<g id="edge1" class="edge">
<title>LearningCenterComponent&#45;&gt;LearningCenterModule</title>
<path fill="none" stroke="black" d="M299.05,-122.11C299.05,-122.11 299.05,-140.99 299.05,-140.99"/>
<polygon fill="black" stroke="black" points="295.55,-140.99 299.05,-150.99 302.55,-140.99 295.55,-140.99"/>
</g>
<!-- LearningCenterRoutingModule -->
<g id="node3" class="node">
<title>LearningCenterRoutingModule</title>
<polygon fill="#8dd3c7" stroke="black" points="247.02,-122 244.02,-126 223.02,-126 220.02,-122 54.98,-122 54.98,-86 247.02,-86 247.02,-122"/>
<text text-anchor="middle" x="151" y="-99.8" font-family="Times,serif" font-size="14.00">LearningCenterRoutingModule</text>
</g>
<!-- LearningCenterRoutingModule&#45;&gt;LearningCenterModule -->
<g id="edge2" class="edge">
<title>LearningCenterRoutingModule&#45;&gt;LearningCenterModule</title>
<path fill="none" stroke="black" d="M213.28,-122.11C213.28,-122.11 213.28,-140.99 213.28,-140.99"/>
<polygon fill="black" stroke="black" points="209.78,-140.99 213.28,-150.99 216.78,-140.99 209.78,-140.99"/>
</g>
</g>
</svg>
