<?xml version="1.0" encoding="UTF-8" standalone="no"?>
<!DOCTYPE svg PUBLIC "-//W3C//DTD SVG 1.1//EN"
 "http://www.w3.org/Graphics/SVG/1.1/DTD/svg11.dtd">
<!-- Generated by graphviz version 2.44.1 (20200629.0846)
 -->
<!-- Title: dependencies Pages: 1 -->
<svg width="908pt" height="284pt"
 viewBox="0.00 0.00 908.00 284.00" xmlns="http://www.w3.org/2000/svg" xmlns:xlink="http://www.w3.org/1999/xlink">
<g id="graph0" class="graph" transform="scale(1 1) rotate(0) translate(4 280)">
<title>dependencies</title>
<polygon fill="white" stroke="transparent" points="-4,4 -4,-280 904,-280 904,4 -4,4"/>
<text text-anchor="start" x="429.01" y="-42.4" font-family="sans-serif" font-weight="bold" font-size="14.00">Legend</text>
<polygon fill="#ffffb3" stroke="transparent" points="216,-10 216,-30 236,-30 236,-10 216,-10"/>
<text text-anchor="start" x="239.63" y="-15.4" font-family="sans-serif" font-size="14.00"> &#160;Declarations</text>
<polygon fill="#8dd3c7" stroke="transparent" points="329,-10 329,-30 349,-30 349,-10 329,-10"/>
<text text-anchor="start" x="352.73" y="-15.4" font-family="sans-serif" font-size="14.00"> &#160;Module</text>
<polygon fill="#80b1d3" stroke="transparent" points="415,-10 415,-30 435,-30 435,-10 415,-10"/>
<text text-anchor="start" x="438.78" y="-15.4" font-family="sans-serif" font-size="14.00"> &#160;Bootstrap</text>
<polygon fill="#fdb462" stroke="transparent" points="512,-10 512,-30 532,-30 532,-10 512,-10"/>
<text text-anchor="start" x="535.67" y="-15.4" font-family="sans-serif" font-size="14.00"> &#160;Providers</text>
<polygon fill="#fb8072" stroke="transparent" points="608,-10 608,-30 628,-30 628,-10 608,-10"/>
<text text-anchor="start" x="631.73" y="-15.4" font-family="sans-serif" font-size="14.00"> &#160;Exports</text>
<g id="clust1" class="cluster">
<title>cluster_SharedModule</title>
<polygon fill="none" stroke="black" stroke-dasharray="1,5" points="8,-70 8,-268 892,-268 892,-70 8,-70"/>
</g>
<g id="clust2" class="cluster">
<title>cluster_SharedModule_declarations</title>
<polygon fill="none" stroke="black" points="732,-78 732,-130 878,-130 878,-78 732,-78"/>
</g>
<g id="clust4" class="cluster">
<title>cluster_SharedModule_imports</title>
<polygon fill="none" stroke="black" points="25,-78 25,-130 724,-130 724,-78 25,-78"/>
</g>
<g id="clust5" class="cluster">
<title>cluster_SharedModule_exports</title>
<polygon fill="none" stroke="black" points="16,-208 16,-260 884,-260 884,-208 16,-208"/>
</g>
<!-- BreakpointDirective -->
<g id="node1" class="node">
<title>BreakpointDirective</title>
<polygon fill="#ffffb3" stroke="black" points="870.29,-122 739.71,-122 739.71,-86 870.29,-86 870.29,-122"/>
<text text-anchor="middle" x="805" y="-99.8" font-family="Times,serif" font-size="14.00">BreakpointDirective</text>
</g>
<!-- SharedModule -->
<g id="node2" class="node">
<title>SharedModule</title>
<polygon fill="#8dd3c7" stroke="black" points="436.42,-187 433.42,-191 412.42,-191 409.42,-187 337.58,-187 337.58,-151 436.42,-151 436.42,-187"/>
<text text-anchor="middle" x="387" y="-164.8" font-family="Times,serif" font-size="14.00">SharedModule</text>
</g>
<!-- BreakpointDirective&#45;&gt;SharedModule -->
<g id="edge1" class="edge">
<title>BreakpointDirective&#45;&gt;SharedModule</title>
<path fill="none" stroke="black" d="M827.47,-122.22C827.47,-140.83 827.47,-167 827.47,-167 827.47,-167 446.24,-167 446.24,-167"/>
<polygon fill="black" stroke="black" points="446.24,-163.5 436.24,-167 446.24,-170.5 446.24,-163.5"/>
</g>
<!-- BreakpointDirective  -->
<g id="node8" class="node">
<title>BreakpointDirective </title>
<polygon fill="#fb8072" stroke="black" points="875.79,-252 742.21,-252 742.21,-216 875.79,-216 875.79,-252"/>
<text text-anchor="middle" x="809" y="-229.8" font-family="Times,serif" font-size="14.00">BreakpointDirective </text>
</g>
<!-- SharedModule&#45;&gt;BreakpointDirective  -->
<g id="edge7" class="edge">
<title>SharedModule&#45;&gt;BreakpointDirective </title>
<path fill="none" stroke="black" stroke-dasharray="5,2" d="M436.58,-172C543.21,-172 784.78,-172 784.78,-172 784.78,-172 784.78,-205.73 784.78,-205.73"/>
<polygon fill="black" stroke="black" points="781.29,-205.73 784.78,-215.73 788.29,-205.73 781.29,-205.73"/>
</g>
<!-- CardGalleryModule  -->
<g id="node9" class="node">
<title>CardGalleryModule </title>
<polygon fill="#fb8072" stroke="black" points="724.24,-252 591.76,-252 591.76,-216 724.24,-216 724.24,-252"/>
<text text-anchor="middle" x="658" y="-229.8" font-family="Times,serif" font-size="14.00">CardGalleryModule </text>
</g>
<!-- SharedModule&#45;&gt;CardGalleryModule  -->
<g id="edge8" class="edge">
<title>SharedModule&#45;&gt;CardGalleryModule </title>
<path fill="none" stroke="black" stroke-dasharray="5,2" d="M436.27,-177C508.16,-177 633.38,-177 633.38,-177 633.38,-177 633.38,-205.96 633.38,-205.96"/>
<polygon fill="black" stroke="black" points="629.88,-205.96 633.38,-215.96 636.88,-205.96 629.88,-205.96"/>
</g>
<!-- CarouselModule  -->
<g id="node10" class="node">
<title>CarouselModule </title>
<polygon fill="#fb8072" stroke="black" points="573.31,-252 460.69,-252 460.69,-216 573.31,-216 573.31,-252"/>
<text text-anchor="middle" x="517" y="-229.8" font-family="Times,serif" font-size="14.00">CarouselModule </text>
</g>
<!-- SharedModule&#45;&gt;CarouselModule  -->
<g id="edge9" class="edge">
<title>SharedModule&#45;&gt;CarouselModule </title>
<path fill="none" stroke="black" stroke-dasharray="5,2" d="M436.51,-182C465.69,-182 496.95,-182 496.95,-182 496.95,-182 496.95,-205.81 496.95,-205.81"/>
<polygon fill="black" stroke="black" points="493.45,-205.81 496.95,-215.81 500.45,-205.81 493.45,-205.81"/>
</g>
<!-- MenuIconModule  -->
<g id="node11" class="node">
<title>MenuIconModule </title>
<polygon fill="#fb8072" stroke="black" points="442.08,-252 321.92,-252 321.92,-216 442.08,-216 442.08,-252"/>
<text text-anchor="middle" x="382" y="-229.8" font-family="Times,serif" font-size="14.00">MenuIconModule </text>
</g>
<!-- SharedModule&#45;&gt;MenuIconModule  -->
<g id="edge10" class="edge">
<title>SharedModule&#45;&gt;MenuIconModule </title>
<path fill="none" stroke="black" stroke-dasharray="5,2" d="M387,-187.11C387,-187.11 387,-205.99 387,-205.99"/>
<polygon fill="black" stroke="black" points="383.5,-205.99 387,-215.99 390.5,-205.99 383.5,-205.99"/>
</g>
<!-- NewsItemListModule  -->
<g id="node12" class="node">
<title>NewsItemListModule </title>
<polygon fill="#fb8072" stroke="black" points="304.36,-252 161.64,-252 161.64,-216 304.36,-216 304.36,-252"/>
<text text-anchor="middle" x="233" y="-229.8" font-family="Times,serif" font-size="14.00">NewsItemListModule </text>
</g>
<!-- SharedModule&#45;&gt;NewsItemListModule  -->
<g id="edge11" class="edge">
<title>SharedModule&#45;&gt;NewsItemListModule </title>
<path fill="none" stroke="black" stroke-dasharray="5,2" d="M337.36,-180C286.17,-180 213.77,-180 213.77,-180 213.77,-180 213.77,-205.72 213.77,-205.72"/>
<polygon fill="black" stroke="black" points="210.27,-205.72 213.77,-215.72 217.27,-205.72 210.27,-205.72"/>
</g>
<!-- NewsItemModule  -->
<g id="node13" class="node">
<title>NewsItemModule </title>
<polygon fill="#fb8072" stroke="black" points="144.08,-252 23.92,-252 23.92,-216 144.08,-216 144.08,-252"/>
<text text-anchor="middle" x="84" y="-229.8" font-family="Times,serif" font-size="14.00">NewsItemModule </text>
</g>
<!-- SharedModule&#45;&gt;NewsItemModule  -->
<g id="edge12" class="edge">
<title>SharedModule&#45;&gt;NewsItemModule </title>
<path fill="none" stroke="black" stroke-dasharray="5,2" d="M337.53,-173C248.49,-173 70.4,-173 70.4,-173 70.4,-173 70.4,-205.7 70.4,-205.7"/>
<polygon fill="black" stroke="black" points="66.9,-205.7 70.4,-215.7 73.9,-205.7 66.9,-205.7"/>
</g>
<!-- CardGalleryModule -->
<g id="node3" class="node">
<title>CardGalleryModule</title>
<polygon fill="#8dd3c7" stroke="black" points="716.24,-122 713.24,-126 692.24,-126 689.24,-122 587.76,-122 587.76,-86 716.24,-86 716.24,-122"/>
<text text-anchor="middle" x="652" y="-99.8" font-family="Times,serif" font-size="14.00">CardGalleryModule</text>
</g>
<!-- CardGalleryModule&#45;&gt;SharedModule -->
<g id="edge2" class="edge">
<title>CardGalleryModule&#45;&gt;SharedModule</title>
<path fill="none" stroke="black" d="M674.87,-122.03C674.87,-139.06 674.87,-162 674.87,-162 674.87,-162 446.49,-162 446.49,-162"/>
<polygon fill="black" stroke="black" points="446.49,-158.5 436.49,-162 446.49,-165.5 446.49,-158.5"/>
</g>
<!-- CarouselModule -->
<g id="node4" class="node">
<title>CarouselModule</title>
<polygon fill="#8dd3c7" stroke="black" points="569.81,-122 566.81,-126 545.81,-126 542.81,-122 460.19,-122 460.19,-86 569.81,-86 569.81,-122"/>
<text text-anchor="middle" x="515" y="-99.8" font-family="Times,serif" font-size="14.00">CarouselModule</text>
</g>
<!-- CarouselModule&#45;&gt;SharedModule -->
<g id="edge3" class="edge">
<title>CarouselModule&#45;&gt;SharedModule</title>
<path fill="none" stroke="black" d="M533.3,-122.24C533.3,-137.57 533.3,-157 533.3,-157 533.3,-157 446.53,-157 446.53,-157"/>
<polygon fill="black" stroke="black" points="446.53,-153.5 436.53,-157 446.53,-160.5 446.53,-153.5"/>
</g>
<!-- MenuIconModule -->
<g id="node5" class="node">
<title>MenuIconModule</title>
<polygon fill="#8dd3c7" stroke="black" points="442.58,-122 439.58,-126 418.58,-126 415.58,-122 325.42,-122 325.42,-86 442.58,-86 442.58,-122"/>
<text text-anchor="middle" x="384" y="-99.8" font-family="Times,serif" font-size="14.00">MenuIconModule</text>
</g>
<!-- MenuIconModule&#45;&gt;SharedModule -->
<g id="edge4" class="edge">
<title>MenuIconModule&#45;&gt;SharedModule</title>
<path fill="none" stroke="black" d="M387,-122.11C387,-122.11 387,-140.99 387,-140.99"/>
<polygon fill="black" stroke="black" points="383.5,-140.99 387,-150.99 390.5,-140.99 383.5,-140.99"/>
</g>
<!-- NewsItemListModule -->
<g id="node6" class="node">
<title>NewsItemListModule</title>
<polygon fill="#8dd3c7" stroke="black" points="307.36,-122 304.36,-126 283.36,-126 280.36,-122 168.64,-122 168.64,-86 307.36,-86 307.36,-122"/>
<text text-anchor="middle" x="238" y="-99.8" font-family="Times,serif" font-size="14.00">NewsItemListModule</text>
</g>
<!-- NewsItemListModule&#45;&gt;SharedModule -->
<g id="edge5" class="edge">
<title>NewsItemListModule&#45;&gt;SharedModule</title>
<path fill="none" stroke="black" d="M258.98,-122.01C258.98,-138.05 258.98,-159 258.98,-159 258.98,-159 327.5,-159 327.5,-159"/>
<polygon fill="black" stroke="black" points="327.5,-162.5 337.5,-159 327.5,-155.5 327.5,-162.5"/>
</g>
<!-- NewsItemModule -->
<g id="node7" class="node">
<title>NewsItemModule</title>
<polygon fill="#8dd3c7" stroke="black" points="150.58,-122 147.58,-126 126.58,-126 123.58,-122 33.42,-122 33.42,-86 150.58,-86 150.58,-122"/>
<text text-anchor="middle" x="92" y="-99.8" font-family="Times,serif" font-size="14.00">NewsItemModule</text>
</g>
<!-- NewsItemModule&#45;&gt;SharedModule -->
<g id="edge6" class="edge">
<title>NewsItemModule&#45;&gt;SharedModule</title>
<path fill="none" stroke="black" d="M107.35,-122.27C107.35,-140.56 107.35,-166 107.35,-166 107.35,-166 327.65,-166 327.65,-166"/>
<polygon fill="black" stroke="black" points="327.65,-169.5 337.65,-166 327.65,-162.5 327.65,-169.5"/>
</g>
</g>
</svg>
