<?xml version="1.0" encoding="UTF-8" standalone="no"?>
<!DOCTYPE svg PUBLIC "-//W3C//DTD SVG 1.1//EN"
 "http://www.w3.org/Graphics/SVG/1.1/DTD/svg11.dtd">
<!-- Generated by graphviz version 2.44.1 (20200629.0846)
 -->
<!-- Title: dependencies Pages: 1 -->
<svg width="768pt" height="211pt"
 viewBox="0.00 0.00 768.00 211.00" xmlns="http://www.w3.org/2000/svg" xmlns:xlink="http://www.w3.org/1999/xlink">
<g id="graph0" class="graph" transform="scale(1 1) rotate(0) translate(4 207)">
<title>dependencies</title>
<polygon fill="white" stroke="transparent" points="-4,4 -4,-207 764,-207 764,4 -4,4"/>
<text text-anchor="start" x="359.01" y="-42.4" font-family="sans-serif" font-weight="bold" font-size="14.00">Legend</text>
<polygon fill="#ffffb3" stroke="transparent" points="146,-10 146,-30 166,-30 166,-10 146,-10"/>
<text text-anchor="start" x="169.63" y="-15.4" font-family="sans-serif" font-size="14.00"> &#160;Declarations</text>
<polygon fill="#8dd3c7" stroke="transparent" points="259,-10 259,-30 279,-30 279,-10 259,-10"/>
<text text-anchor="start" x="282.73" y="-15.4" font-family="sans-serif" font-size="14.00"> &#160;Module</text>
<polygon fill="#80b1d3" stroke="transparent" points="345,-10 345,-30 365,-30 365,-10 345,-10"/>
<text text-anchor="start" x="368.78" y="-15.4" font-family="sans-serif" font-size="14.00"> &#160;Bootstrap</text>
<polygon fill="#fdb462" stroke="transparent" points="442,-10 442,-30 462,-30 462,-10 442,-10"/>
<text text-anchor="start" x="465.67" y="-15.4" font-family="sans-serif" font-size="14.00"> &#160;Providers</text>
<polygon fill="#fb8072" stroke="transparent" points="538,-10 538,-30 558,-30 558,-10 538,-10"/>
<text text-anchor="start" x="561.73" y="-15.4" font-family="sans-serif" font-size="14.00"> &#160;Exports</text>
<g id="clust1" class="cluster">
<title>cluster_MapsModule</title>
<polygon fill="none" stroke="black" stroke-dasharray="1,5" points="8,-70 8,-195 752,-195 752,-70 8,-70"/>
</g>
<g id="clust4" class="cluster">
<title>cluster_MapsModule_imports</title>
<polygon fill="none" stroke="black" points="152,-78 152,-130 744,-130 744,-78 152,-78"/>
</g>
<g id="clust2" class="cluster">
<title>cluster_MapsModule_declarations</title>
<polygon fill="none" stroke="black" points="16,-78 16,-130 144,-130 144,-78 16,-78"/>
</g>
<!-- MapsComponent -->
<g id="node1" class="node">
<title>MapsComponent</title>
<polygon fill="#ffffb3" stroke="black" points="136.44,-122 23.56,-122 23.56,-86 136.44,-86 136.44,-122"/>
<text text-anchor="middle" x="80" y="-99.8" font-family="Times,serif" font-size="14.00">MapsComponent</text>
</g>
<!-- MapsModule -->
<g id="node2" class="node">
<title>MapsModule</title>
<polygon fill="#8dd3c7" stroke="black" points="422.15,-187 419.15,-191 398.15,-191 395.15,-187 331.85,-187 331.85,-151 422.15,-151 422.15,-187"/>
<text text-anchor="middle" x="377" y="-164.8" font-family="Times,serif" font-size="14.00">MapsModule</text>
</g>
<!-- MapsComponent&#45;&gt;MapsModule -->
<g id="edge1" class="edge">
<title>MapsComponent&#45;&gt;MapsModule</title>
<path fill="none" stroke="black" d="M80,-122.28C80,-143.32 80,-175 80,-175 80,-175 321.57,-175 321.57,-175"/>
<polygon fill="black" stroke="black" points="321.57,-178.5 331.57,-175 321.57,-171.5 321.57,-178.5"/>
</g>
<!-- CarouselModule -->
<g id="node3" class="node">
<title>CarouselModule</title>
<polygon fill="#8dd3c7" stroke="black" points="735.81,-122 732.81,-126 711.81,-126 708.81,-122 626.19,-122 626.19,-86 735.81,-86 735.81,-122"/>
<text text-anchor="middle" x="681" y="-99.8" font-family="Times,serif" font-size="14.00">CarouselModule</text>
</g>
<!-- CarouselModule&#45;&gt;MapsModule -->
<g id="edge2" class="edge">
<title>CarouselModule&#45;&gt;MapsModule</title>
<path fill="none" stroke="black" d="M681,-122.28C681,-143.32 681,-175 681,-175 681,-175 432.18,-175 432.18,-175"/>
<polygon fill="black" stroke="black" points="432.18,-171.5 422.18,-175 432.18,-178.5 432.18,-171.5"/>
</g>
<!-- DiscoverListingModule -->
<g id="node4" class="node">
<title>DiscoverListingModule</title>
<polygon fill="#8dd3c7" stroke="black" points="607.75,-122 604.75,-126 583.75,-126 580.75,-122 458.25,-122 458.25,-86 607.75,-86 607.75,-122"/>
<text text-anchor="middle" x="533" y="-99.8" font-family="Times,serif" font-size="14.00">DiscoverListingModule</text>
</g>
<!-- DiscoverListingModule&#45;&gt;MapsModule -->
<g id="edge3" class="edge">
<title>DiscoverListingModule&#45;&gt;MapsModule</title>
<path fill="none" stroke="black" d="M533,-122.02C533,-139.37 533,-163 533,-163 533,-163 432.54,-163 432.54,-163"/>
<polygon fill="black" stroke="black" points="432.54,-159.5 422.54,-163 432.54,-166.5 432.54,-159.5"/>
</g>
<!-- ItemDrawerModule -->
<g id="node5" class="node">
<title>ItemDrawerModule</title>
<polygon fill="#8dd3c7" stroke="black" points="440.67,-122 437.67,-126 416.67,-126 413.67,-122 313.33,-122 313.33,-86 440.67,-86 440.67,-122"/>
<text text-anchor="middle" x="377" y="-99.8" font-family="Times,serif" font-size="14.00">ItemDrawerModule</text>
</g>
<!-- ItemDrawerModule&#45;&gt;MapsModule -->
<g id="edge4" class="edge">
<title>ItemDrawerModule&#45;&gt;MapsModule</title>
<path fill="none" stroke="black" d="M377,-122.11C377,-122.11 377,-140.99 377,-140.99"/>
<polygon fill="black" stroke="black" points="373.5,-140.99 377,-150.99 380.5,-140.99 373.5,-140.99"/>
</g>
<!-- MapsRoutingModule -->
<g id="node6" class="node">
<title>MapsRoutingModule</title>
<polygon fill="#8dd3c7" stroke="black" points="295.77,-122 292.77,-126 271.77,-126 268.77,-122 160.23,-122 160.23,-86 295.77,-86 295.77,-122"/>
<text text-anchor="middle" x="228" y="-99.8" font-family="Times,serif" font-size="14.00">MapsRoutingModule</text>
</g>
<!-- MapsRoutingModule&#45;&gt;MapsModule -->
<g id="edge5" class="edge">
<title>MapsRoutingModule&#45;&gt;MapsModule</title>
<path fill="none" stroke="black" d="M228,-122.02C228,-139.37 228,-163 228,-163 228,-163 321.49,-163 321.49,-163"/>
<polygon fill="black" stroke="black" points="321.49,-166.5 331.49,-163 321.49,-159.5 321.49,-166.5"/>
</g>
</g>
</svg>
