<?xml version="1.0" encoding="UTF-8" standalone="no"?>
<!DOCTYPE svg PUBLIC "-//W3C//DTD SVG 1.1//EN"
 "http://www.w3.org/Graphics/SVG/1.1/DTD/svg11.dtd">
<!-- Generated by graphviz version 2.44.1 (20200629.0846)
 -->
<!-- Title: dependencies Pages: 1 -->
<svg width="689pt" height="284pt"
 viewBox="0.00 0.00 689.00 284.00" xmlns="http://www.w3.org/2000/svg" xmlns:xlink="http://www.w3.org/1999/xlink">
<g id="graph0" class="graph" transform="scale(1 1) rotate(0) translate(4 280)">
<title>dependencies</title>
<polygon fill="white" stroke="transparent" points="-4,4 -4,-280 685,-280 685,4 -4,4"/>
<text text-anchor="start" x="319.51" y="-42.4" font-family="sans-serif" font-weight="bold" font-size="14.00">Legend</text>
<polygon fill="#ffffb3" stroke="transparent" points="106.5,-10 106.5,-30 126.5,-30 126.5,-10 106.5,-10"/>
<text text-anchor="start" x="130.13" y="-15.4" font-family="sans-serif" font-size="14.00"> &#160;Declarations</text>
<polygon fill="#8dd3c7" stroke="transparent" points="219.5,-10 219.5,-30 239.5,-30 239.5,-10 219.5,-10"/>
<text text-anchor="start" x="243.23" y="-15.4" font-family="sans-serif" font-size="14.00"> &#160;Module</text>
<polygon fill="#80b1d3" stroke="transparent" points="305.5,-10 305.5,-30 325.5,-30 325.5,-10 305.5,-10"/>
<text text-anchor="start" x="329.28" y="-15.4" font-family="sans-serif" font-size="14.00"> &#160;Bootstrap</text>
<polygon fill="#fdb462" stroke="transparent" points="402.5,-10 402.5,-30 422.5,-30 422.5,-10 402.5,-10"/>
<text text-anchor="start" x="426.17" y="-15.4" font-family="sans-serif" font-size="14.00"> &#160;Providers</text>
<polygon fill="#fb8072" stroke="transparent" points="498.5,-10 498.5,-30 518.5,-30 518.5,-10 498.5,-10"/>
<text text-anchor="start" x="522.23" y="-15.4" font-family="sans-serif" font-size="14.00"> &#160;Exports</text>
<g id="clust1" class="cluster">
<title>cluster_CoreModule</title>
<polygon fill="none" stroke="black" stroke-dasharray="1,5" points="8,-70 8,-268 673,-268 673,-70 8,-70"/>
</g>
<g id="clust3" class="cluster">
<title>cluster_CoreModule_imports</title>
<polygon fill="none" stroke="black" points="16,-78 16,-130 665,-130 665,-78 16,-78"/>
</g>
<g id="clust4" class="cluster">
<title>cluster_CoreModule_exports</title>
<polygon fill="none" stroke="black" points="63,-208 63,-260 619,-260 619,-208 63,-208"/>
</g>
<!-- ContactModule -->
<g id="node1" class="node">
<title>ContactModule</title>
<polygon fill="#8dd3c7" stroke="black" points="656.6,-122 653.6,-126 632.6,-126 629.6,-122 553.4,-122 553.4,-86 656.6,-86 656.6,-122"/>
<text text-anchor="middle" x="605" y="-99.8" font-family="Times,serif" font-size="14.00">ContactModule</text>
</g>
<!-- CoreModule -->
<g id="node6" class="node">
<title>CoreModule</title>
<polygon fill="#8dd3c7" stroke="black" points="414.26,-187 411.26,-191 390.26,-191 387.26,-187 327.74,-187 327.74,-151 414.26,-151 414.26,-187"/>
<text text-anchor="middle" x="371" y="-164.8" font-family="Times,serif" font-size="14.00">CoreModule</text>
</g>
<!-- ContactModule&#45;&gt;CoreModule -->
<g id="edge1" class="edge">
<title>ContactModule&#45;&gt;CoreModule</title>
<path fill="none" stroke="black" d="M582.38,-122.11C582.38,-141.34 582.38,-169 582.38,-169 582.38,-169 424.28,-169 424.28,-169"/>
<polygon fill="black" stroke="black" points="424.28,-165.5 414.28,-169 424.28,-172.5 424.28,-165.5"/>
</g>
<!-- FooterModule -->
<g id="node2" class="node">
<title>FooterModule</title>
<polygon fill="#8dd3c7" stroke="black" points="535.1,-122 532.1,-126 511.1,-126 508.1,-122 438.9,-122 438.9,-86 535.1,-86 535.1,-122"/>
<text text-anchor="middle" x="487" y="-99.8" font-family="Times,serif" font-size="14.00">FooterModule</text>
</g>
<!-- FooterModule&#45;&gt;CoreModule -->
<g id="edge2" class="edge">
<title>FooterModule&#45;&gt;CoreModule</title>
<path fill="none" stroke="black" d="M462.88,-122.03C462.88,-138.4 462.88,-160 462.88,-160 462.88,-160 424.52,-160 424.52,-160"/>
<polygon fill="black" stroke="black" points="424.52,-156.5 414.52,-160 424.52,-163.5 424.52,-156.5"/>
</g>
<!-- HeaderModule -->
<g id="node3" class="node">
<title>HeaderModule</title>
<polygon fill="#8dd3c7" stroke="black" points="420.96,-122 417.96,-126 396.96,-126 393.96,-122 321.04,-122 321.04,-86 420.96,-86 420.96,-122"/>
<text text-anchor="middle" x="371" y="-99.8" font-family="Times,serif" font-size="14.00">HeaderModule</text>
</g>
<!-- HeaderModule&#45;&gt;CoreModule -->
<g id="edge3" class="edge">
<title>HeaderModule&#45;&gt;CoreModule</title>
<path fill="none" stroke="black" d="M371,-122.11C371,-122.11 371,-140.99 371,-140.99"/>
<polygon fill="black" stroke="black" points="367.5,-140.99 371,-150.99 374.5,-140.99 367.5,-140.99"/>
</g>
<!-- MobileHeaderMenuModule -->
<g id="node4" class="node">
<title>MobileHeaderMenuModule</title>
<polygon fill="#8dd3c7" stroke="black" points="302.56,-122 299.56,-126 278.56,-126 275.56,-122 129.44,-122 129.44,-86 302.56,-86 302.56,-122"/>
<text text-anchor="middle" x="216" y="-99.8" font-family="Times,serif" font-size="14.00">MobileHeaderMenuModule</text>
</g>
<!-- MobileHeaderMenuModule&#45;&gt;CoreModule -->
<g id="edge4" class="edge">
<title>MobileHeaderMenuModule&#45;&gt;CoreModule</title>
<path fill="none" stroke="black" d="M283.9,-122.03C283.9,-138.4 283.9,-160 283.9,-160 283.9,-160 317.71,-160 317.71,-160"/>
<polygon fill="black" stroke="black" points="317.71,-163.5 327.71,-160 317.71,-156.5 317.71,-163.5"/>
</g>
<!-- StateModule -->
<g id="node5" class="node">
<title>StateModule</title>
<polygon fill="#8dd3c7" stroke="black" points="111.54,-122 108.54,-126 87.54,-126 84.54,-122 24.46,-122 24.46,-86 111.54,-86 111.54,-122"/>
<text text-anchor="middle" x="68" y="-99.8" font-family="Times,serif" font-size="14.00">StateModule</text>
</g>
<!-- StateModule&#45;&gt;CoreModule -->
<g id="edge5" class="edge">
<title>StateModule&#45;&gt;CoreModule</title>
<path fill="none" stroke="black" d="M91.25,-122.11C91.25,-141.34 91.25,-169 91.25,-169 91.25,-169 317.6,-169 317.6,-169"/>
<polygon fill="black" stroke="black" points="317.6,-172.5 327.6,-169 317.6,-165.5 317.6,-172.5"/>
</g>
<!-- ContactModule  -->
<g id="node7" class="node">
<title>ContactModule </title>
<polygon fill="#fb8072" stroke="black" points="611.1,-252 504.9,-252 504.9,-216 611.1,-216 611.1,-252"/>
<text text-anchor="middle" x="558" y="-229.8" font-family="Times,serif" font-size="14.00">ContactModule </text>
</g>
<!-- CoreModule&#45;&gt;ContactModule  -->
<g id="edge6" class="edge">
<title>CoreModule&#45;&gt;ContactModule </title>
<path fill="none" stroke="black" stroke-dasharray="5,2" d="M414.46,-178C458.4,-178 519.88,-178 519.88,-178 519.88,-178 519.88,-205.97 519.88,-205.97"/>
<polygon fill="black" stroke="black" points="516.38,-205.97 519.88,-215.97 523.38,-205.97 516.38,-205.97"/>
</g>
<!-- FooterModule  -->
<g id="node8" class="node">
<title>FooterModule </title>
<polygon fill="#fb8072" stroke="black" points="486.6,-252 387.4,-252 387.4,-216 486.6,-216 486.6,-252"/>
<text text-anchor="middle" x="437" y="-229.8" font-family="Times,serif" font-size="14.00">FooterModule </text>
</g>
<!-- CoreModule&#45;&gt;FooterModule  -->
<g id="edge7" class="edge">
<title>CoreModule&#45;&gt;FooterModule </title>
<path fill="none" stroke="black" stroke-dasharray="5,2" d="M400.79,-187.11C400.79,-187.11 400.79,-205.99 400.79,-205.99"/>
<polygon fill="black" stroke="black" points="397.29,-205.99 400.79,-215.99 404.29,-205.99 397.29,-205.99"/>
</g>
<!-- HeaderModule  -->
<g id="node9" class="node">
<title>HeaderModule </title>
<polygon fill="#fb8072" stroke="black" points="368.96,-252 265.04,-252 265.04,-216 368.96,-216 368.96,-252"/>
<text text-anchor="middle" x="317" y="-229.8" font-family="Times,serif" font-size="14.00">HeaderModule </text>
</g>
<!-- CoreModule&#45;&gt;HeaderModule  -->
<g id="edge8" class="edge">
<title>CoreModule&#45;&gt;HeaderModule </title>
<path fill="none" stroke="black" stroke-dasharray="5,2" d="M348.17,-187.11C348.17,-187.11 348.17,-205.99 348.17,-205.99"/>
<polygon fill="black" stroke="black" points="344.67,-205.99 348.17,-215.99 351.67,-205.99 344.67,-205.99"/>
</g>
<!-- MobileHeaderMenuModule  -->
<g id="node10" class="node">
<title>MobileHeaderMenuModule </title>
<polygon fill="#fb8072" stroke="black" points="247.06,-252 70.94,-252 70.94,-216 247.06,-216 247.06,-252"/>
<text text-anchor="middle" x="159" y="-229.8" font-family="Times,serif" font-size="14.00">MobileHeaderMenuModule </text>
</g>
<!-- CoreModule&#45;&gt;MobileHeaderMenuModule  -->
<g id="edge9" class="edge">
<title>CoreModule&#45;&gt;MobileHeaderMenuModule </title>
<path fill="none" stroke="black" stroke-dasharray="5,2" d="M327.72,-178C273.72,-178 188.38,-178 188.38,-178 188.38,-178 188.38,-205.97 188.38,-205.97"/>
<polygon fill="black" stroke="black" points="184.88,-205.97 188.38,-215.97 191.88,-205.97 184.88,-205.97"/>
</g>
</g>
</svg>
