<?xml version="1.0" encoding="UTF-8" standalone="no"?>
<!DOCTYPE svg PUBLIC "-//W3C//DTD SVG 1.1//EN"
 "http://www.w3.org/Graphics/SVG/1.1/DTD/svg11.dtd">
<!-- Generated by graphviz version 2.44.1 (20200629.0846)
 -->
<!-- Title: dependencies Pages: 1 -->
<svg width="710pt" height="211pt"
 viewBox="0.00 0.00 710.00 211.00" xmlns="http://www.w3.org/2000/svg" xmlns:xlink="http://www.w3.org/1999/xlink">
<g id="graph0" class="graph" transform="scale(1 1) rotate(0) translate(4 207)">
<title>dependencies</title>
<polygon fill="white" stroke="transparent" points="-4,4 -4,-207 706,-207 706,4 -4,4"/>
<text text-anchor="start" x="330.01" y="-42.4" font-family="sans-serif" font-weight="bold" font-size="14.00">Legend</text>
<polygon fill="#ffffb3" stroke="transparent" points="117,-10 117,-30 137,-30 137,-10 117,-10"/>
<text text-anchor="start" x="140.63" y="-15.4" font-family="sans-serif" font-size="14.00"> &#160;Declarations</text>
<polygon fill="#8dd3c7" stroke="transparent" points="230,-10 230,-30 250,-30 250,-10 230,-10"/>
<text text-anchor="start" x="253.73" y="-15.4" font-family="sans-serif" font-size="14.00"> &#160;Module</text>
<polygon fill="#80b1d3" stroke="transparent" points="316,-10 316,-30 336,-30 336,-10 316,-10"/>
<text text-anchor="start" x="339.78" y="-15.4" font-family="sans-serif" font-size="14.00"> &#160;Bootstrap</text>
<polygon fill="#fdb462" stroke="transparent" points="413,-10 413,-30 433,-30 433,-10 413,-10"/>
<text text-anchor="start" x="436.67" y="-15.4" font-family="sans-serif" font-size="14.00"> &#160;Providers</text>
<polygon fill="#fb8072" stroke="transparent" points="509,-10 509,-30 529,-30 529,-10 509,-10"/>
<text text-anchor="start" x="532.73" y="-15.4" font-family="sans-serif" font-size="14.00"> &#160;Exports</text>
<g id="clust1" class="cluster">
<title>cluster_MacroscopesModule</title>
<polygon fill="none" stroke="black" stroke-dasharray="1,5" points="8,-70 8,-195 694,-195 694,-70 8,-70"/>
</g>
<g id="clust2" class="cluster">
<title>cluster_MacroscopesModule_declarations</title>
<polygon fill="none" stroke="black" points="514,-78 514,-130 686,-130 686,-78 514,-78"/>
</g>
<g id="clust4" class="cluster">
<title>cluster_MacroscopesModule_imports</title>
<polygon fill="none" stroke="black" points="16,-78 16,-130 506,-130 506,-78 16,-78"/>
</g>
<!-- MacroscopesComponent -->
<g id="node1" class="node">
<title>MacroscopesComponent</title>
<polygon fill="#ffffb3" stroke="black" points="677.69,-122 522.31,-122 522.31,-86 677.69,-86 677.69,-122"/>
<text text-anchor="middle" x="600" y="-99.8" font-family="Times,serif" font-size="14.00">MacroscopesComponent</text>
</g>
<!-- MacroscopesModule -->
<g id="node2" class="node">
<title>MacroscopesModule</title>
<polygon fill="#8dd3c7" stroke="black" points="435.9,-187 432.9,-191 411.9,-191 408.9,-187 302.1,-187 302.1,-151 435.9,-151 435.9,-187"/>
<text text-anchor="middle" x="369" y="-164.8" font-family="Times,serif" font-size="14.00">MacroscopesModule</text>
</g>
<!-- MacroscopesComponent&#45;&gt;MacroscopesModule -->
<g id="edge1" class="edge">
<title>MacroscopesComponent&#45;&gt;MacroscopesModule</title>
<path fill="none" stroke="black" d="M600,-122.11C600,-141.34 600,-169 600,-169 600,-169 445.81,-169 445.81,-169"/>
<polygon fill="black" stroke="black" points="445.81,-165.5 435.81,-169 445.81,-172.5 445.81,-165.5"/>
</g>
<!-- CarouselModule -->
<g id="node3" class="node">
<title>CarouselModule</title>
<polygon fill="#8dd3c7" stroke="black" points="497.81,-122 494.81,-126 473.81,-126 470.81,-122 388.19,-122 388.19,-86 497.81,-86 497.81,-122"/>
<text text-anchor="middle" x="443" y="-99.8" font-family="Times,serif" font-size="14.00">CarouselModule</text>
</g>
<!-- CarouselModule&#45;&gt;MacroscopesModule -->
<g id="edge2" class="edge">
<title>CarouselModule&#45;&gt;MacroscopesModule</title>
<path fill="none" stroke="black" d="M412.02,-122.11C412.02,-122.11 412.02,-140.99 412.02,-140.99"/>
<polygon fill="black" stroke="black" points="408.52,-140.99 412.02,-150.99 415.52,-140.99 408.52,-140.99"/>
</g>
<!-- DiscoverListingModule -->
<g id="node4" class="node">
<title>DiscoverListingModule</title>
<polygon fill="#8dd3c7" stroke="black" points="369.75,-122 366.75,-126 345.75,-126 342.75,-122 220.25,-122 220.25,-86 369.75,-86 369.75,-122"/>
<text text-anchor="middle" x="295" y="-99.8" font-family="Times,serif" font-size="14.00">DiscoverListingModule</text>
</g>
<!-- DiscoverListingModule&#45;&gt;MacroscopesModule -->
<g id="edge3" class="edge">
<title>DiscoverListingModule&#45;&gt;MacroscopesModule</title>
<path fill="none" stroke="black" d="M336.09,-122.11C336.09,-122.11 336.09,-140.99 336.09,-140.99"/>
<polygon fill="black" stroke="black" points="332.59,-140.99 336.09,-150.99 339.59,-140.99 332.59,-140.99"/>
</g>
<!-- MacroscopesRoutingModule -->
<g id="node5" class="node">
<title>MacroscopesRoutingModule</title>
<polygon fill="#8dd3c7" stroke="black" points="202.02,-122 199.02,-126 178.02,-126 175.02,-122 23.98,-122 23.98,-86 202.02,-86 202.02,-122"/>
<text text-anchor="middle" x="113" y="-99.8" font-family="Times,serif" font-size="14.00">MacroscopesRoutingModule</text>
</g>
<!-- MacroscopesRoutingModule&#45;&gt;MacroscopesModule -->
<g id="edge4" class="edge">
<title>MacroscopesRoutingModule&#45;&gt;MacroscopesModule</title>
<path fill="none" stroke="black" d="M113,-122.11C113,-141.34 113,-169 113,-169 113,-169 292.07,-169 292.07,-169"/>
<polygon fill="black" stroke="black" points="292.07,-172.5 302.07,-169 292.07,-165.5 292.07,-172.5"/>
</g>
</g>
</svg>
