<?xml version="1.0" encoding="UTF-8" standalone="no"?>
<!DOCTYPE svg PUBLIC "-//W3C//DTD SVG 1.1//EN"
 "http://www.w3.org/Graphics/SVG/1.1/DTD/svg11.dtd">
<!-- Generated by graphviz version 2.44.1 (20200629.0846)
 -->
<!-- Title: dependencies Pages: 1 -->
<svg width="504pt" height="211pt"
 viewBox="0.00 0.00 504.00 211.00" xmlns="http://www.w3.org/2000/svg" xmlns:xlink="http://www.w3.org/1999/xlink">
<g id="graph0" class="graph" transform="scale(1 1) rotate(0) translate(4 207)">
<title>dependencies</title>
<polygon fill="white" stroke="transparent" points="-4,4 -4,-207 500,-207 500,4 -4,4"/>
<text text-anchor="start" x="227.01" y="-42.4" font-family="sans-serif" font-weight="bold" font-size="14.00">Legend</text>
<polygon fill="#ffffb3" stroke="transparent" points="14,-10 14,-30 34,-30 34,-10 14,-10"/>
<text text-anchor="start" x="37.63" y="-15.4" font-family="sans-serif" font-size="14.00"> &#160;Declarations</text>
<polygon fill="#8dd3c7" stroke="transparent" points="127,-10 127,-30 147,-30 147,-10 127,-10"/>
<text text-anchor="start" x="150.73" y="-15.4" font-family="sans-serif" font-size="14.00"> &#160;Module</text>
<polygon fill="#80b1d3" stroke="transparent" points="213,-10 213,-30 233,-30 233,-10 213,-10"/>
<text text-anchor="start" x="236.78" y="-15.4" font-family="sans-serif" font-size="14.00"> &#160;Bootstrap</text>
<polygon fill="#fdb462" stroke="transparent" points="310,-10 310,-30 330,-30 330,-10 310,-10"/>
<text text-anchor="start" x="333.67" y="-15.4" font-family="sans-serif" font-size="14.00"> &#160;Providers</text>
<polygon fill="#fb8072" stroke="transparent" points="406,-10 406,-30 426,-30 426,-10 406,-10"/>
<text text-anchor="start" x="429.73" y="-15.4" font-family="sans-serif" font-size="14.00"> &#160;Exports</text>
<g id="clust1" class="cluster">
<title>cluster_BooksModule</title>
<polygon fill="none" stroke="black" stroke-dasharray="1,5" points="9,-70 9,-195 487,-195 487,-70 9,-70"/>
</g>
<g id="clust2" class="cluster">
<title>cluster_BooksModule_declarations</title>
<polygon fill="none" stroke="black" points="345,-78 345,-130 479,-130 479,-78 345,-78"/>
</g>
<g id="clust4" class="cluster">
<title>cluster_BooksModule_imports</title>
<polygon fill="none" stroke="black" points="17,-78 17,-130 337,-130 337,-78 17,-78"/>
</g>
<!-- BooksComponent -->
<g id="node1" class="node">
<title>BooksComponent</title>
<polygon fill="#ffffb3" stroke="black" points="470.61,-122 353.39,-122 353.39,-86 470.61,-86 470.61,-122"/>
<text text-anchor="middle" x="412" y="-99.8" font-family="Times,serif" font-size="14.00">BooksComponent</text>
</g>
<!-- BooksModule -->
<g id="node2" class="node">
<title>BooksModule</title>
<polygon fill="#8dd3c7" stroke="black" points="303.83,-187 300.83,-191 279.83,-191 276.83,-187 208.17,-187 208.17,-151 303.83,-151 303.83,-187"/>
<text text-anchor="middle" x="256" y="-164.8" font-family="Times,serif" font-size="14.00">BooksModule</text>
</g>
<!-- BooksComponent&#45;&gt;BooksModule -->
<g id="edge1" class="edge">
<title>BooksComponent&#45;&gt;BooksModule</title>
<path fill="none" stroke="black" d="M412,-122.11C412,-141.34 412,-169 412,-169 412,-169 314.08,-169 314.08,-169"/>
<polygon fill="black" stroke="black" points="314.08,-165.5 304.08,-169 314.08,-172.5 314.08,-165.5"/>
</g>
<!-- BookOverviewModule -->
<g id="node3" class="node">
<title>BookOverviewModule</title>
<polygon fill="#8dd3c7" stroke="black" points="328.58,-122 325.58,-126 304.58,-126 301.58,-122 183.42,-122 183.42,-86 328.58,-86 328.58,-122"/>
<text text-anchor="middle" x="256" y="-99.8" font-family="Times,serif" font-size="14.00">BookOverviewModule</text>
</g>
<!-- BookOverviewModule&#45;&gt;BooksModule -->
<g id="edge2" class="edge">
<title>BookOverviewModule&#45;&gt;BooksModule</title>
<path fill="none" stroke="black" d="M256,-122.11C256,-122.11 256,-140.99 256,-140.99"/>
<polygon fill="black" stroke="black" points="252.5,-140.99 256,-150.99 259.5,-140.99 252.5,-140.99"/>
</g>
<!-- BooksRoutingModule -->
<g id="node4" class="node">
<title>BooksRoutingModule</title>
<polygon fill="#8dd3c7" stroke="black" points="165.45,-122 162.45,-126 141.45,-126 138.45,-122 24.55,-122 24.55,-86 165.45,-86 165.45,-122"/>
<text text-anchor="middle" x="95" y="-99.8" font-family="Times,serif" font-size="14.00">BooksRoutingModule</text>
</g>
<!-- BooksRoutingModule&#45;&gt;BooksModule -->
<g id="edge3" class="edge">
<title>BooksRoutingModule&#45;&gt;BooksModule</title>
<path fill="none" stroke="black" d="M95,-122.11C95,-141.34 95,-169 95,-169 95,-169 198.13,-169 198.13,-169"/>
<polygon fill="black" stroke="black" points="198.13,-172.5 208.13,-169 198.13,-165.5 198.13,-172.5"/>
</g>
</g>
</svg>
