<?xml version="1.0" encoding="UTF-8" standalone="no"?>
<!DOCTYPE svg PUBLIC "-//W3C//DTD SVG 1.1//EN"
 "http://www.w3.org/Graphics/SVG/1.1/DTD/svg11.dtd">
<!-- Generated by graphviz version 2.44.1 (20200629.0846)
 -->
<!-- Title: dependencies Pages: 1 -->
<svg width="504pt" height="211pt"
 viewBox="0.00 0.00 504.00 211.00" xmlns="http://www.w3.org/2000/svg" xmlns:xlink="http://www.w3.org/1999/xlink">
<g id="graph0" class="graph" transform="scale(1 1) rotate(0) translate(4 207)">
<title>dependencies</title>
<polygon fill="white" stroke="transparent" points="-4,4 -4,-207 500,-207 500,4 -4,4"/>
<text text-anchor="start" x="227.01" y="-42.4" font-family="sans-serif" font-weight="bold" font-size="14.00">Legend</text>
<polygon fill="#ffffb3" stroke="transparent" points="14,-10 14,-30 34,-30 34,-10 14,-10"/>
<text text-anchor="start" x="37.63" y="-15.4" font-family="sans-serif" font-size="14.00"> &#160;Declarations</text>
<polygon fill="#8dd3c7" stroke="transparent" points="127,-10 127,-30 147,-30 147,-10 127,-10"/>
<text text-anchor="start" x="150.73" y="-15.4" font-family="sans-serif" font-size="14.00"> &#160;Module</text>
<polygon fill="#80b1d3" stroke="transparent" points="213,-10 213,-30 233,-30 233,-10 213,-10"/>
<text text-anchor="start" x="236.78" y="-15.4" font-family="sans-serif" font-size="14.00"> &#160;Bootstrap</text>
<polygon fill="#fdb462" stroke="transparent" points="310,-10 310,-30 330,-30 330,-10 310,-10"/>
<text text-anchor="start" x="333.67" y="-15.4" font-family="sans-serif" font-size="14.00"> &#160;Providers</text>
<polygon fill="#fb8072" stroke="transparent" points="406,-10 406,-30 426,-30 426,-10 406,-10"/>
<text text-anchor="start" x="429.73" y="-15.4" font-family="sans-serif" font-size="14.00"> &#160;Exports</text>
<g id="clust1" class="cluster">
<title>cluster_HostingModule</title>
<polygon fill="none" stroke="black" stroke-dasharray="1,5" points="82,-70 82,-195 414,-195 414,-70 82,-70"/>
</g>
<g id="clust4" class="cluster">
<title>cluster_HostingModule_imports</title>
<polygon fill="none" stroke="black" points="240,-78 240,-130 406,-130 406,-78 240,-78"/>
</g>
<g id="clust2" class="cluster">
<title>cluster_HostingModule_declarations</title>
<polygon fill="none" stroke="black" points="90,-78 90,-130 232,-130 232,-78 90,-78"/>
</g>
<!-- HostingComponent -->
<g id="node1" class="node">
<title>HostingComponent</title>
<polygon fill="#ffffb3" stroke="black" points="223.67,-122 98.33,-122 98.33,-86 223.67,-86 223.67,-122"/>
<text text-anchor="middle" x="161" y="-99.8" font-family="Times,serif" font-size="14.00">HostingComponent</text>
</g>
<!-- HostingModule -->
<g id="node2" class="node">
<title>HostingModule</title>
<polygon fill="#8dd3c7" stroke="black" points="293.88,-187 290.88,-191 269.88,-191 266.88,-187 190.12,-187 190.12,-151 293.88,-151 293.88,-187"/>
<text text-anchor="middle" x="242" y="-164.8" font-family="Times,serif" font-size="14.00">HostingModule</text>
</g>
<!-- HostingComponent&#45;&gt;HostingModule -->
<g id="edge1" class="edge">
<title>HostingComponent&#45;&gt;HostingModule</title>
<path fill="none" stroke="black" d="M206.95,-122.11C206.95,-122.11 206.95,-140.99 206.95,-140.99"/>
<polygon fill="black" stroke="black" points="203.45,-140.99 206.95,-150.99 210.45,-140.99 203.45,-140.99"/>
</g>
<!-- HostingRoutingModule -->
<g id="node3" class="node">
<title>HostingRoutingModule</title>
<polygon fill="#8dd3c7" stroke="black" points="397.5,-122 394.5,-126 373.5,-126 370.5,-122 248.5,-122 248.5,-86 397.5,-86 397.5,-122"/>
<text text-anchor="middle" x="323" y="-99.8" font-family="Times,serif" font-size="14.00">HostingRoutingModule</text>
</g>
<!-- HostingRoutingModule&#45;&gt;HostingModule -->
<g id="edge2" class="edge">
<title>HostingRoutingModule&#45;&gt;HostingModule</title>
<path fill="none" stroke="black" d="M271.22,-122.11C271.22,-122.11 271.22,-140.99 271.22,-140.99"/>
<polygon fill="black" stroke="black" points="267.72,-140.99 271.22,-150.99 274.72,-140.99 267.72,-140.99"/>
</g>
</g>
</svg>
