<?xml version="1.0" encoding="UTF-8" standalone="no"?>
<!DOCTYPE svg PUBLIC "-//W3C//DTD SVG 1.1//EN"
 "http://www.w3.org/Graphics/SVG/1.1/DTD/svg11.dtd">
<!-- Generated by graphviz version 2.44.1 (20200629.0846)
 -->
<!-- Title: dependencies Pages: 1 -->
<svg width="622pt" height="211pt"
 viewBox="0.00 0.00 622.00 211.00" xmlns="http://www.w3.org/2000/svg" xmlns:xlink="http://www.w3.org/1999/xlink">
<g id="graph0" class="graph" transform="scale(1 1) rotate(0) translate(4 207)">
<title>dependencies</title>
<polygon fill="white" stroke="transparent" points="-4,4 -4,-207 618,-207 618,4 -4,4"/>
<text text-anchor="start" x="286.01" y="-42.4" font-family="sans-serif" font-weight="bold" font-size="14.00">Legend</text>
<polygon fill="#ffffb3" stroke="transparent" points="73,-10 73,-30 93,-30 93,-10 73,-10"/>
<text text-anchor="start" x="96.63" y="-15.4" font-family="sans-serif" font-size="14.00"> &#160;Declarations</text>
<polygon fill="#8dd3c7" stroke="transparent" points="186,-10 186,-30 206,-30 206,-10 186,-10"/>
<text text-anchor="start" x="209.73" y="-15.4" font-family="sans-serif" font-size="14.00"> &#160;Module</text>
<polygon fill="#80b1d3" stroke="transparent" points="272,-10 272,-30 292,-30 292,-10 272,-10"/>
<text text-anchor="start" x="295.78" y="-15.4" font-family="sans-serif" font-size="14.00"> &#160;Bootstrap</text>
<polygon fill="#fdb462" stroke="transparent" points="369,-10 369,-30 389,-30 389,-10 369,-10"/>
<text text-anchor="start" x="392.67" y="-15.4" font-family="sans-serif" font-size="14.00"> &#160;Providers</text>
<polygon fill="#fb8072" stroke="transparent" points="465,-10 465,-30 485,-30 485,-10 465,-10"/>
<text text-anchor="start" x="488.73" y="-15.4" font-family="sans-serif" font-size="14.00"> &#160;Exports</text>
<g id="clust1" class="cluster">
<title>cluster_CallForMacroscopesModule</title>
<polygon fill="none" stroke="black" stroke-dasharray="1,5" points="8,-70 8,-195 606,-195 606,-70 8,-70"/>
</g>
<g id="clust4" class="cluster">
<title>cluster_CallForMacroscopesModule_imports</title>
<polygon fill="none" stroke="black" points="238,-78 238,-130 598,-130 598,-78 238,-78"/>
</g>
<g id="clust2" class="cluster">
<title>cluster_CallForMacroscopesModule_declarations</title>
<polygon fill="none" stroke="black" points="16,-78 16,-130 230,-130 230,-78 16,-78"/>
</g>
<!-- CallForMacroscopesComponent -->
<g id="node1" class="node">
<title>CallForMacroscopesComponent</title>
<polygon fill="#ffffb3" stroke="black" points="221.96,-122 24.04,-122 24.04,-86 221.96,-86 221.96,-122"/>
<text text-anchor="middle" x="123" y="-99.8" font-family="Times,serif" font-size="14.00">CallForMacroscopesComponent</text>
</g>
<!-- CallForMacroscopesModule -->
<g id="node2" class="node">
<title>CallForMacroscopesModule</title>
<polygon fill="#8dd3c7" stroke="black" points="386.18,-187 383.18,-191 362.18,-191 359.18,-187 209.82,-187 209.82,-151 386.18,-151 386.18,-187"/>
<text text-anchor="middle" x="298" y="-164.8" font-family="Times,serif" font-size="14.00">CallForMacroscopesModule</text>
</g>
<!-- CallForMacroscopesComponent&#45;&gt;CallForMacroscopesModule -->
<g id="edge1" class="edge">
<title>CallForMacroscopesComponent&#45;&gt;CallForMacroscopesModule</title>
<path fill="none" stroke="black" d="M215.95,-122.11C215.95,-122.11 215.95,-140.99 215.95,-140.99"/>
<polygon fill="black" stroke="black" points="212.45,-140.99 215.95,-150.99 219.45,-140.99 212.45,-140.99"/>
</g>
<!-- CallForMacroscopesRoutingModule -->
<g id="node3" class="node">
<title>CallForMacroscopesRoutingModule</title>
<polygon fill="#8dd3c7" stroke="black" points="589.8,-122 586.8,-126 565.8,-126 562.8,-122 368.2,-122 368.2,-86 589.8,-86 589.8,-122"/>
<text text-anchor="middle" x="479" y="-99.8" font-family="Times,serif" font-size="14.00">CallForMacroscopesRoutingModule</text>
</g>
<!-- CallForMacroscopesRoutingModule&#45;&gt;CallForMacroscopesModule -->
<g id="edge2" class="edge">
<title>CallForMacroscopesRoutingModule&#45;&gt;CallForMacroscopesModule</title>
<path fill="none" stroke="black" d="M377.22,-122.11C377.22,-122.11 377.22,-140.99 377.22,-140.99"/>
<polygon fill="black" stroke="black" points="373.72,-140.99 377.22,-150.99 380.72,-140.99 373.72,-140.99"/>
</g>
<!-- CallOutModule -->
<g id="node4" class="node">
<title>CallOutModule</title>
<polygon fill="#8dd3c7" stroke="black" points="349.88,-122 346.88,-126 325.88,-126 322.88,-122 246.12,-122 246.12,-86 349.88,-86 349.88,-122"/>
<text text-anchor="middle" x="298" y="-99.8" font-family="Times,serif" font-size="14.00">CallOutModule</text>
</g>
<!-- CallOutModule&#45;&gt;CallForMacroscopesModule -->
<g id="edge3" class="edge">
<title>CallOutModule&#45;&gt;CallForMacroscopesModule</title>
<path fill="none" stroke="black" d="M298,-122.11C298,-122.11 298,-140.99 298,-140.99"/>
<polygon fill="black" stroke="black" points="294.5,-140.99 298,-150.99 301.5,-140.99 294.5,-140.99"/>
</g>
</g>
</svg>
