<?xml version="1.0" encoding="UTF-8" standalone="no"?>
<!DOCTYPE svg PUBLIC "-//W3C//DTD SVG 1.1//EN"
 "http://www.w3.org/Graphics/SVG/1.1/DTD/svg11.dtd">
<!-- Generated by graphviz version 2.44.1 (20200629.0846)
 -->
<!-- Title: dependencies Pages: 1 -->
<svg width="504pt" height="284pt"
 viewBox="0.00 0.00 504.00 284.00" xmlns="http://www.w3.org/2000/svg" xmlns:xlink="http://www.w3.org/1999/xlink">
<g id="graph0" class="graph" transform="scale(1 1) rotate(0) translate(4 280)">
<title>dependencies</title>
<polygon fill="white" stroke="transparent" points="-4,4 -4,-280 500,-280 500,4 -4,4"/>
<text text-anchor="start" x="227.01" y="-42.4" font-family="sans-serif" font-weight="bold" font-size="14.00">Legend</text>
<polygon fill="#ffffb3" stroke="transparent" points="14,-10 14,-30 34,-30 34,-10 14,-10"/>
<text text-anchor="start" x="37.63" y="-15.4" font-family="sans-serif" font-size="14.00"> &#160;Declarations</text>
<polygon fill="#8dd3c7" stroke="transparent" points="127,-10 127,-30 147,-30 147,-10 127,-10"/>
<text text-anchor="start" x="150.73" y="-15.4" font-family="sans-serif" font-size="14.00"> &#160;Module</text>
<polygon fill="#80b1d3" stroke="transparent" points="213,-10 213,-30 233,-30 233,-10 213,-10"/>
<text text-anchor="start" x="236.78" y="-15.4" font-family="sans-serif" font-size="14.00"> &#160;Bootstrap</text>
<polygon fill="#fdb462" stroke="transparent" points="310,-10 310,-30 330,-30 330,-10 310,-10"/>
<text text-anchor="start" x="333.67" y="-15.4" font-family="sans-serif" font-size="14.00"> &#160;Providers</text>
<polygon fill="#fb8072" stroke="transparent" points="406,-10 406,-30 426,-30 426,-10 406,-10"/>
<text text-anchor="start" x="429.73" y="-15.4" font-family="sans-serif" font-size="14.00"> &#160;Exports</text>
<g id="clust1" class="cluster">
<title>cluster_MobileHeaderMenuModule</title>
<polygon fill="none" stroke="black" stroke-dasharray="1,5" points="71,-70 71,-268 425,-268 425,-70 71,-70"/>
</g>
<g id="clust5" class="cluster">
<title>cluster_MobileHeaderMenuModule_exports</title>
<polygon fill="none" stroke="black" points="141,-208 141,-260 355,-260 355,-208 141,-208"/>
</g>
<g id="clust4" class="cluster">
<title>cluster_MobileHeaderMenuModule_imports</title>
<polygon fill="none" stroke="black" points="297,-78 297,-130 417,-130 417,-78 297,-78"/>
</g>
<g id="clust2" class="cluster">
<title>cluster_MobileHeaderMenuModule_declarations</title>
<polygon fill="none" stroke="black" points="79,-78 79,-130 289,-130 289,-78 79,-78"/>
</g>
<!-- MobileHeaderMenuComponent -->
<g id="node1" class="node">
<title>MobileHeaderMenuComponent</title>
<polygon fill="#ffffb3" stroke="black" points="281.34,-122 86.66,-122 86.66,-86 281.34,-86 281.34,-122"/>
<text text-anchor="middle" x="184" y="-99.8" font-family="Times,serif" font-size="14.00">MobileHeaderMenuComponent</text>
</g>
<!-- MobileHeaderMenuModule -->
<g id="node2" class="node">
<title>MobileHeaderMenuModule</title>
<polygon fill="#8dd3c7" stroke="black" points="334.56,-187 331.56,-191 310.56,-191 307.56,-187 161.44,-187 161.44,-151 334.56,-151 334.56,-187"/>
<text text-anchor="middle" x="248" y="-164.8" font-family="Times,serif" font-size="14.00">MobileHeaderMenuModule</text>
</g>
<!-- MobileHeaderMenuComponent&#45;&gt;MobileHeaderMenuModule -->
<g id="edge1" class="edge">
<title>MobileHeaderMenuComponent&#45;&gt;MobileHeaderMenuModule</title>
<path fill="none" stroke="black" d="M221.45,-122.11C221.45,-122.11 221.45,-140.99 221.45,-140.99"/>
<polygon fill="black" stroke="black" points="217.95,-140.99 221.45,-150.99 224.95,-140.99 217.95,-140.99"/>
</g>
<!-- MobileHeaderMenuComponent  -->
<g id="node4" class="node">
<title>MobileHeaderMenuComponent </title>
<polygon fill="#fb8072" stroke="black" points="347.34,-252 148.66,-252 148.66,-216 347.34,-216 347.34,-252"/>
<text text-anchor="middle" x="248" y="-229.8" font-family="Times,serif" font-size="14.00">MobileHeaderMenuComponent </text>
</g>
<!-- MobileHeaderMenuModule&#45;&gt;MobileHeaderMenuComponent  -->
<g id="edge3" class="edge">
<title>MobileHeaderMenuModule&#45;&gt;MobileHeaderMenuComponent </title>
<path fill="none" stroke="black" stroke-dasharray="5,2" d="M248,-187.11C248,-187.11 248,-205.99 248,-205.99"/>
<polygon fill="black" stroke="black" points="244.5,-205.99 248,-215.99 251.5,-205.99 244.5,-205.99"/>
</g>
<!-- ContactModule -->
<g id="node3" class="node">
<title>ContactModule</title>
<polygon fill="#8dd3c7" stroke="black" points="408.6,-122 405.6,-126 384.6,-126 381.6,-122 305.4,-122 305.4,-86 408.6,-86 408.6,-122"/>
<text text-anchor="middle" x="357" y="-99.8" font-family="Times,serif" font-size="14.00">ContactModule</text>
</g>
<!-- ContactModule&#45;&gt;MobileHeaderMenuModule -->
<g id="edge2" class="edge">
<title>ContactModule&#45;&gt;MobileHeaderMenuModule</title>
<path fill="none" stroke="black" d="M319.99,-122.11C319.99,-122.11 319.99,-140.99 319.99,-140.99"/>
<polygon fill="black" stroke="black" points="316.49,-140.99 319.99,-150.99 323.49,-140.99 316.49,-140.99"/>
</g>
</g>
</svg>
