<?xml version="1.0" encoding="UTF-8" standalone="no"?>
<!DOCTYPE svg PUBLIC "-//W3C//DTD SVG 1.1//EN"
 "http://www.w3.org/Graphics/SVG/1.1/DTD/svg11.dtd">
<!-- Generated by graphviz version 2.44.1 (20200629.0846)
 -->
<!-- Title: dependencies Pages: 1 -->
<svg width="504pt" height="284pt"
 viewBox="0.00 0.00 504.00 284.00" xmlns="http://www.w3.org/2000/svg" xmlns:xlink="http://www.w3.org/1999/xlink">
<g id="graph0" class="graph" transform="scale(1 1) rotate(0) translate(4 280)">
<title>dependencies</title>
<polygon fill="white" stroke="transparent" points="-4,4 -4,-280 500,-280 500,4 -4,4"/>
<text text-anchor="start" x="227.01" y="-42.4" font-family="sans-serif" font-weight="bold" font-size="14.00">Legend</text>
<polygon fill="#ffffb3" stroke="transparent" points="14,-10 14,-30 34,-30 34,-10 14,-10"/>
<text text-anchor="start" x="37.63" y="-15.4" font-family="sans-serif" font-size="14.00"> &#160;Declarations</text>
<polygon fill="#8dd3c7" stroke="transparent" points="127,-10 127,-30 147,-30 147,-10 127,-10"/>
<text text-anchor="start" x="150.73" y="-15.4" font-family="sans-serif" font-size="14.00"> &#160;Module</text>
<polygon fill="#80b1d3" stroke="transparent" points="213,-10 213,-30 233,-30 233,-10 213,-10"/>
<text text-anchor="start" x="236.78" y="-15.4" font-family="sans-serif" font-size="14.00"> &#160;Bootstrap</text>
<polygon fill="#fdb462" stroke="transparent" points="310,-10 310,-30 330,-30 330,-10 310,-10"/>
<text text-anchor="start" x="333.67" y="-15.4" font-family="sans-serif" font-size="14.00"> &#160;Providers</text>
<polygon fill="#fb8072" stroke="transparent" points="406,-10 406,-30 426,-30 426,-10 406,-10"/>
<text text-anchor="start" x="429.73" y="-15.4" font-family="sans-serif" font-size="14.00"> &#160;Exports</text>
<g id="clust1" class="cluster">
<title>cluster_ContactModule</title>
<polygon fill="none" stroke="black" stroke-dasharray="1,5" points="109,-70 109,-268 387,-268 387,-70 109,-70"/>
</g>
<g id="clust2" class="cluster">
<title>cluster_ContactModule_declarations</title>
<polygon fill="none" stroke="black" points="239,-78 239,-130 379,-130 379,-78 239,-78"/>
</g>
<g id="clust4" class="cluster">
<title>cluster_ContactModule_imports</title>
<polygon fill="none" stroke="black" points="117,-78 117,-130 231,-130 231,-78 117,-78"/>
</g>
<g id="clust5" class="cluster">
<title>cluster_ContactModule_exports</title>
<polygon fill="none" stroke="black" points="176,-208 176,-260 320,-260 320,-208 176,-208"/>
</g>
<!-- ContactComponent -->
<g id="node1" class="node">
<title>ContactComponent</title>
<polygon fill="#ffffb3" stroke="black" points="371.38,-122 246.62,-122 246.62,-86 371.38,-86 371.38,-122"/>
<text text-anchor="middle" x="309" y="-99.8" font-family="Times,serif" font-size="14.00">ContactComponent</text>
</g>
<!-- ContactModule -->
<g id="node2" class="node">
<title>ContactModule</title>
<polygon fill="#8dd3c7" stroke="black" points="299.6,-187 296.6,-191 275.6,-191 272.6,-187 196.4,-187 196.4,-151 299.6,-151 299.6,-187"/>
<text text-anchor="middle" x="248" y="-164.8" font-family="Times,serif" font-size="14.00">ContactModule</text>
</g>
<!-- ContactComponent&#45;&gt;ContactModule -->
<g id="edge1" class="edge">
<title>ContactComponent&#45;&gt;ContactModule</title>
<path fill="none" stroke="black" d="M273.05,-122.11C273.05,-122.11 273.05,-140.99 273.05,-140.99"/>
<polygon fill="black" stroke="black" points="269.55,-140.99 273.05,-150.99 276.55,-140.99 269.55,-140.99"/>
</g>
<!-- ContactComponent  -->
<g id="node4" class="node">
<title>ContactComponent </title>
<polygon fill="#fb8072" stroke="black" points="312.38,-252 183.62,-252 183.62,-216 312.38,-216 312.38,-252"/>
<text text-anchor="middle" x="248" y="-229.8" font-family="Times,serif" font-size="14.00">ContactComponent </text>
</g>
<!-- ContactModule&#45;&gt;ContactComponent  -->
<g id="edge3" class="edge">
<title>ContactModule&#45;&gt;ContactComponent </title>
<path fill="none" stroke="black" stroke-dasharray="5,2" d="M248,-187.11C248,-187.11 248,-205.99 248,-205.99"/>
<polygon fill="black" stroke="black" points="244.5,-205.99 248,-215.99 251.5,-205.99 244.5,-205.99"/>
</g>
<!-- SharedModule -->
<g id="node3" class="node">
<title>SharedModule</title>
<polygon fill="#8dd3c7" stroke="black" points="223.42,-122 220.42,-126 199.42,-126 196.42,-122 124.58,-122 124.58,-86 223.42,-86 223.42,-122"/>
<text text-anchor="middle" x="174" y="-99.8" font-family="Times,serif" font-size="14.00">SharedModule</text>
</g>
<!-- SharedModule&#45;&gt;ContactModule -->
<g id="edge2" class="edge">
<title>SharedModule&#45;&gt;ContactModule</title>
<path fill="none" stroke="black" d="M209.83,-122.11C209.83,-122.11 209.83,-140.99 209.83,-140.99"/>
<polygon fill="black" stroke="black" points="206.33,-140.99 209.83,-150.99 213.33,-140.99 206.33,-140.99"/>
</g>
</g>
</svg>
