<?xml version="1.0" encoding="UTF-8" standalone="no"?>
<!DOCTYPE svg PUBLIC "-//W3C//DTD SVG 1.1//EN"
 "http://www.w3.org/Graphics/SVG/1.1/DTD/svg11.dtd">
<!-- Generated by graphviz version 2.44.1 (20200629.0846)
 -->
<!-- Title: dependencies Pages: 1 -->
<svg width="633pt" height="211pt"
 viewBox="0.00 0.00 633.00 211.00" xmlns="http://www.w3.org/2000/svg" xmlns:xlink="http://www.w3.org/1999/xlink">
<g id="graph0" class="graph" transform="scale(1 1) rotate(0) translate(4 207)">
<title>dependencies</title>
<polygon fill="white" stroke="transparent" points="-4,4 -4,-207 629,-207 629,4 -4,4"/>
<text text-anchor="start" x="291.51" y="-42.4" font-family="sans-serif" font-weight="bold" font-size="14.00">Legend</text>
<polygon fill="#ffffb3" stroke="transparent" points="78.5,-10 78.5,-30 98.5,-30 98.5,-10 78.5,-10"/>
<text text-anchor="start" x="102.13" y="-15.4" font-family="sans-serif" font-size="14.00"> &#160;Declarations</text>
<polygon fill="#8dd3c7" stroke="transparent" points="191.5,-10 191.5,-30 211.5,-30 211.5,-10 191.5,-10"/>
<text text-anchor="start" x="215.23" y="-15.4" font-family="sans-serif" font-size="14.00"> &#160;Module</text>
<polygon fill="#80b1d3" stroke="transparent" points="277.5,-10 277.5,-30 297.5,-30 297.5,-10 277.5,-10"/>
<text text-anchor="start" x="301.28" y="-15.4" font-family="sans-serif" font-size="14.00"> &#160;Bootstrap</text>
<polygon fill="#fdb462" stroke="transparent" points="374.5,-10 374.5,-30 394.5,-30 394.5,-10 374.5,-10"/>
<text text-anchor="start" x="398.17" y="-15.4" font-family="sans-serif" font-size="14.00"> &#160;Providers</text>
<polygon fill="#fb8072" stroke="transparent" points="470.5,-10 470.5,-30 490.5,-30 490.5,-10 470.5,-10"/>
<text text-anchor="start" x="494.23" y="-15.4" font-family="sans-serif" font-size="14.00"> &#160;Exports</text>
<g id="clust1" class="cluster">
<title>cluster_HomeModule</title>
<polygon fill="none" stroke="black" stroke-dasharray="1,5" points="8,-70 8,-195 617,-195 617,-70 8,-70"/>
</g>
<g id="clust4" class="cluster">
<title>cluster_HomeModule_imports</title>
<polygon fill="none" stroke="black" points="156,-78 156,-130 609,-130 609,-78 156,-78"/>
</g>
<g id="clust2" class="cluster">
<title>cluster_HomeModule_declarations</title>
<polygon fill="none" stroke="black" points="16,-78 16,-130 148,-130 148,-78 16,-78"/>
</g>
<!-- HomeComponent -->
<g id="node1" class="node">
<title>HomeComponent</title>
<polygon fill="#ffffb3" stroke="black" points="139.55,-122 24.45,-122 24.45,-86 139.55,-86 139.55,-122"/>
<text text-anchor="middle" x="82" y="-99.8" font-family="Times,serif" font-size="14.00">HomeComponent</text>
</g>
<!-- HomeModule -->
<g id="node2" class="node">
<title>HomeModule</title>
<polygon fill="#8dd3c7" stroke="black" points="357.76,-187 354.76,-191 333.76,-191 330.76,-187 264.24,-187 264.24,-151 357.76,-151 357.76,-187"/>
<text text-anchor="middle" x="311" y="-164.8" font-family="Times,serif" font-size="14.00">HomeModule</text>
</g>
<!-- HomeComponent&#45;&gt;HomeModule -->
<g id="edge1" class="edge">
<title>HomeComponent&#45;&gt;HomeModule</title>
<path fill="none" stroke="black" d="M82,-122.11C82,-141.34 82,-169 82,-169 82,-169 254.11,-169 254.11,-169"/>
<polygon fill="black" stroke="black" points="254.11,-172.5 264.11,-169 254.11,-165.5 254.11,-172.5"/>
</g>
<!-- ActionCardModule -->
<g id="node3" class="node">
<title>ActionCardModule</title>
<polygon fill="#8dd3c7" stroke="black" points="601.36,-122 598.36,-126 577.36,-126 574.36,-122 476.64,-122 476.64,-86 601.36,-86 601.36,-122"/>
<text text-anchor="middle" x="539" y="-99.8" font-family="Times,serif" font-size="14.00">ActionCardModule</text>
</g>
<!-- ActionCardModule&#45;&gt;HomeModule -->
<g id="edge2" class="edge">
<title>ActionCardModule&#45;&gt;HomeModule</title>
<path fill="none" stroke="black" d="M539,-122.11C539,-141.34 539,-169 539,-169 539,-169 367.97,-169 367.97,-169"/>
<polygon fill="black" stroke="black" points="367.97,-165.5 357.97,-169 367.97,-172.5 367.97,-165.5"/>
</g>
<!-- HomeRoutingModule -->
<g id="node4" class="node">
<title>HomeRoutingModule</title>
<polygon fill="#8dd3c7" stroke="black" points="458.38,-122 455.38,-126 434.38,-126 431.38,-122 319.62,-122 319.62,-86 458.38,-86 458.38,-122"/>
<text text-anchor="middle" x="389" y="-99.8" font-family="Times,serif" font-size="14.00">HomeRoutingModule</text>
</g>
<!-- HomeRoutingModule&#45;&gt;HomeModule -->
<g id="edge3" class="edge">
<title>HomeRoutingModule&#45;&gt;HomeModule</title>
<path fill="none" stroke="black" d="M338.72,-122.11C338.72,-122.11 338.72,-140.99 338.72,-140.99"/>
<polygon fill="black" stroke="black" points="335.22,-140.99 338.72,-150.99 342.22,-140.99 335.22,-140.99"/>
</g>
<!-- SocialSidebarModule -->
<g id="node5" class="node">
<title>SocialSidebarModule</title>
<polygon fill="#8dd3c7" stroke="black" points="301.81,-122 298.81,-126 277.81,-126 274.81,-122 164.19,-122 164.19,-86 301.81,-86 301.81,-122"/>
<text text-anchor="middle" x="233" y="-99.8" font-family="Times,serif" font-size="14.00">SocialSidebarModule</text>
</g>
<!-- SocialSidebarModule&#45;&gt;HomeModule -->
<g id="edge4" class="edge">
<title>SocialSidebarModule&#45;&gt;HomeModule</title>
<path fill="none" stroke="black" d="M282.89,-122.11C282.89,-122.11 282.89,-140.99 282.89,-140.99"/>
<polygon fill="black" stroke="black" points="279.39,-140.99 282.89,-150.99 286.39,-140.99 279.39,-140.99"/>
</g>
</g>
</svg>
