<?xml version="1.0" encoding="UTF-8" standalone="no"?>
<!DOCTYPE svg PUBLIC "-//W3C//DTD SVG 1.1//EN"
 "http://www.w3.org/Graphics/SVG/1.1/DTD/svg11.dtd">
<!-- Generated by graphviz version 2.44.1 (20200629.0846)
 -->
<!-- Title: dependencies Pages: 1 -->
<svg width="504pt" height="284pt"
 viewBox="0.00 0.00 504.00 284.00" xmlns="http://www.w3.org/2000/svg" xmlns:xlink="http://www.w3.org/1999/xlink">
<g id="graph0" class="graph" transform="scale(1 1) rotate(0) translate(4 280)">
<title>dependencies</title>
<polygon fill="white" stroke="transparent" points="-4,4 -4,-280 500,-280 500,4 -4,4"/>
<text text-anchor="start" x="227.01" y="-42.4" font-family="sans-serif" font-weight="bold" font-size="14.00">Legend</text>
<polygon fill="#ffffb3" stroke="transparent" points="14,-10 14,-30 34,-30 34,-10 14,-10"/>
<text text-anchor="start" x="37.63" y="-15.4" font-family="sans-serif" font-size="14.00"> &#160;Declarations</text>
<polygon fill="#8dd3c7" stroke="transparent" points="127,-10 127,-30 147,-30 147,-10 127,-10"/>
<text text-anchor="start" x="150.73" y="-15.4" font-family="sans-serif" font-size="14.00"> &#160;Module</text>
<polygon fill="#80b1d3" stroke="transparent" points="213,-10 213,-30 233,-30 233,-10 213,-10"/>
<text text-anchor="start" x="236.78" y="-15.4" font-family="sans-serif" font-size="14.00"> &#160;Bootstrap</text>
<polygon fill="#fdb462" stroke="transparent" points="310,-10 310,-30 330,-30 330,-10 310,-10"/>
<text text-anchor="start" x="333.67" y="-15.4" font-family="sans-serif" font-size="14.00"> &#160;Providers</text>
<polygon fill="#fb8072" stroke="transparent" points="406,-10 406,-30 426,-30 426,-10 406,-10"/>
<text text-anchor="start" x="429.73" y="-15.4" font-family="sans-serif" font-size="14.00"> &#160;Exports</text>
<g id="clust1" class="cluster">
<title>cluster_ItemDrawerModule</title>
<polygon fill="none" stroke="black" stroke-dasharray="1,5" points="73,-70 73,-268 423,-268 423,-70 73,-70"/>
</g>
<g id="clust5" class="cluster">
<title>cluster_ItemDrawerModule_exports</title>
<polygon fill="none" stroke="black" points="164,-208 164,-260 332,-260 332,-208 164,-208"/>
</g>
<g id="clust4" class="cluster">
<title>cluster_ItemDrawerModule_imports</title>
<polygon fill="none" stroke="black" points="253,-78 253,-130 415,-130 415,-78 253,-78"/>
</g>
<g id="clust2" class="cluster">
<title>cluster_ItemDrawerModule_declarations</title>
<polygon fill="none" stroke="black" points="81,-78 81,-130 245,-130 245,-78 81,-78"/>
</g>
<!-- ItemDrawerComponent -->
<g id="node1" class="node">
<title>ItemDrawerComponent</title>
<polygon fill="#ffffb3" stroke="black" points="237.45,-122 88.55,-122 88.55,-86 237.45,-86 237.45,-122"/>
<text text-anchor="middle" x="163" y="-99.8" font-family="Times,serif" font-size="14.00">ItemDrawerComponent</text>
</g>
<!-- ItemDrawerModule -->
<g id="node2" class="node">
<title>ItemDrawerModule</title>
<polygon fill="#8dd3c7" stroke="black" points="311.67,-187 308.67,-191 287.67,-191 284.67,-187 184.33,-187 184.33,-151 311.67,-151 311.67,-187"/>
<text text-anchor="middle" x="248" y="-164.8" font-family="Times,serif" font-size="14.00">ItemDrawerModule</text>
</g>
<!-- ItemDrawerComponent&#45;&gt;ItemDrawerModule -->
<g id="edge1" class="edge">
<title>ItemDrawerComponent&#45;&gt;ItemDrawerModule</title>
<path fill="none" stroke="black" d="M210.95,-122.11C210.95,-122.11 210.95,-140.99 210.95,-140.99"/>
<polygon fill="black" stroke="black" points="207.45,-140.99 210.95,-150.99 214.45,-140.99 207.45,-140.99"/>
</g>
<!-- ItemDrawerComponent  -->
<g id="node4" class="node">
<title>ItemDrawerComponent </title>
<polygon fill="#fb8072" stroke="black" points="324.45,-252 171.55,-252 171.55,-216 324.45,-216 324.45,-252"/>
<text text-anchor="middle" x="248" y="-229.8" font-family="Times,serif" font-size="14.00">ItemDrawerComponent </text>
</g>
<!-- ItemDrawerModule&#45;&gt;ItemDrawerComponent  -->
<g id="edge3" class="edge">
<title>ItemDrawerModule&#45;&gt;ItemDrawerComponent </title>
<path fill="none" stroke="black" stroke-dasharray="5,2" d="M248,-187.11C248,-187.11 248,-205.99 248,-205.99"/>
<polygon fill="black" stroke="black" points="244.5,-205.99 248,-215.99 251.5,-205.99 244.5,-205.99"/>
</g>
<!-- PurchaseModalModule -->
<g id="node3" class="node">
<title>PurchaseModalModule</title>
<polygon fill="#8dd3c7" stroke="black" points="407.13,-122 404.13,-126 383.13,-126 380.13,-122 260.87,-122 260.87,-86 407.13,-86 407.13,-122"/>
<text text-anchor="middle" x="334" y="-99.8" font-family="Times,serif" font-size="14.00">PurchaseModalModule</text>
</g>
<!-- PurchaseModalModule&#45;&gt;ItemDrawerModule -->
<g id="edge2" class="edge">
<title>PurchaseModalModule&#45;&gt;ItemDrawerModule</title>
<path fill="none" stroke="black" d="M286.13,-122.11C286.13,-122.11 286.13,-140.99 286.13,-140.99"/>
<polygon fill="black" stroke="black" points="282.63,-140.99 286.13,-150.99 289.63,-140.99 282.63,-140.99"/>
</g>
</g>
</svg>
