<?xml version="1.0" encoding="UTF-8" standalone="no"?>
<!DOCTYPE svg PUBLIC "-//W3C//DTD SVG 1.1//EN"
 "http://www.w3.org/Graphics/SVG/1.1/DTD/svg11.dtd">
<!-- Generated by graphviz version 2.44.1 (20200629.0846)
 -->
<!-- Title: dependencies Pages: 1 -->
<svg width="504pt" height="284pt"
 viewBox="0.00 0.00 504.00 284.00" xmlns="http://www.w3.org/2000/svg" xmlns:xlink="http://www.w3.org/1999/xlink">
<g id="graph0" class="graph" transform="scale(1 1) rotate(0) translate(4 280)">
<title>dependencies</title>
<polygon fill="white" stroke="transparent" points="-4,4 -4,-280 500,-280 500,4 -4,4"/>
<text text-anchor="start" x="227.01" y="-42.4" font-family="sans-serif" font-weight="bold" font-size="14.00">Legend</text>
<polygon fill="#ffffb3" stroke="transparent" points="14,-10 14,-30 34,-30 34,-10 14,-10"/>
<text text-anchor="start" x="37.63" y="-15.4" font-family="sans-serif" font-size="14.00"> &#160;Declarations</text>
<polygon fill="#8dd3c7" stroke="transparent" points="127,-10 127,-30 147,-30 147,-10 127,-10"/>
<text text-anchor="start" x="150.73" y="-15.4" font-family="sans-serif" font-size="14.00"> &#160;Module</text>
<polygon fill="#80b1d3" stroke="transparent" points="213,-10 213,-30 233,-30 233,-10 213,-10"/>
<text text-anchor="start" x="236.78" y="-15.4" font-family="sans-serif" font-size="14.00"> &#160;Bootstrap</text>
<polygon fill="#fdb462" stroke="transparent" points="310,-10 310,-30 330,-30 330,-10 310,-10"/>
<text text-anchor="start" x="333.67" y="-15.4" font-family="sans-serif" font-size="14.00"> &#160;Providers</text>
<polygon fill="#fb8072" stroke="transparent" points="406,-10 406,-30 426,-30 426,-10 406,-10"/>
<text text-anchor="start" x="429.73" y="-15.4" font-family="sans-serif" font-size="14.00"> &#160;Exports</text>
<g id="clust1" class="cluster">
<title>cluster_DiscoverListingModule</title>
<polygon fill="none" stroke="black" stroke-dasharray="1,5" points="61,-70 61,-268 435,-268 435,-70 61,-70"/>
</g>
<g id="clust5" class="cluster">
<title>cluster_DiscoverListingModule_exports</title>
<polygon fill="none" stroke="black" points="152,-208 152,-260 344,-260 344,-208 152,-208"/>
</g>
<g id="clust4" class="cluster">
<title>cluster_DiscoverListingModule_imports</title>
<polygon fill="none" stroke="black" points="265,-78 265,-130 427,-130 427,-78 265,-78"/>
</g>
<g id="clust2" class="cluster">
<title>cluster_DiscoverListingModule_declarations</title>
<polygon fill="none" stroke="black" points="69,-78 69,-130 257,-130 257,-78 69,-78"/>
</g>
<!-- DiscoverListingComponent -->
<g id="node1" class="node">
<title>DiscoverListingComponent</title>
<polygon fill="#ffffb3" stroke="black" points="248.53,-122 77.47,-122 77.47,-86 248.53,-86 248.53,-122"/>
<text text-anchor="middle" x="163" y="-99.8" font-family="Times,serif" font-size="14.00">DiscoverListingComponent</text>
</g>
<!-- DiscoverListingModule -->
<g id="node2" class="node">
<title>DiscoverListingModule</title>
<polygon fill="#8dd3c7" stroke="black" points="322.75,-187 319.75,-191 298.75,-191 295.75,-187 173.25,-187 173.25,-151 322.75,-151 322.75,-187"/>
<text text-anchor="middle" x="248" y="-164.8" font-family="Times,serif" font-size="14.00">DiscoverListingModule</text>
</g>
<!-- DiscoverListingComponent&#45;&gt;DiscoverListingModule -->
<g id="edge1" class="edge">
<title>DiscoverListingComponent&#45;&gt;DiscoverListingModule</title>
<path fill="none" stroke="black" d="M210.95,-122.11C210.95,-122.11 210.95,-140.99 210.95,-140.99"/>
<polygon fill="black" stroke="black" points="207.45,-140.99 210.95,-150.99 214.45,-140.99 207.45,-140.99"/>
</g>
<!-- DiscoverListingComponent  -->
<g id="node4" class="node">
<title>DiscoverListingComponent </title>
<polygon fill="#fb8072" stroke="black" points="335.53,-252 160.47,-252 160.47,-216 335.53,-216 335.53,-252"/>
<text text-anchor="middle" x="248" y="-229.8" font-family="Times,serif" font-size="14.00">DiscoverListingComponent </text>
</g>
<!-- DiscoverListingModule&#45;&gt;DiscoverListingComponent  -->
<g id="edge3" class="edge">
<title>DiscoverListingModule&#45;&gt;DiscoverListingComponent </title>
<path fill="none" stroke="black" stroke-dasharray="5,2" d="M248,-187.11C248,-187.11 248,-205.99 248,-205.99"/>
<polygon fill="black" stroke="black" points="244.5,-205.99 248,-215.99 251.5,-205.99 244.5,-205.99"/>
</g>
<!-- WarningDialogModule -->
<g id="node3" class="node">
<title>WarningDialogModule</title>
<polygon fill="#8dd3c7" stroke="black" points="419.13,-122 416.13,-126 395.13,-126 392.13,-122 272.87,-122 272.87,-86 419.13,-86 419.13,-122"/>
<text text-anchor="middle" x="346" y="-99.8" font-family="Times,serif" font-size="14.00">WarningDialogModule</text>
</g>
<!-- WarningDialogModule&#45;&gt;DiscoverListingModule -->
<g id="edge2" class="edge">
<title>WarningDialogModule&#45;&gt;DiscoverListingModule</title>
<path fill="none" stroke="black" d="M297.78,-122.11C297.78,-122.11 297.78,-140.99 297.78,-140.99"/>
<polygon fill="black" stroke="black" points="294.28,-140.99 297.78,-150.99 301.28,-140.99 294.28,-140.99"/>
</g>
</g>
</svg>
