<?xml version="1.0" encoding="UTF-8" standalone="no"?>
<!DOCTYPE svg PUBLIC "-//W3C//DTD SVG 1.1//EN"
 "http://www.w3.org/Graphics/SVG/1.1/DTD/svg11.dtd">
<!-- Generated by graphviz version 2.44.1 (20200629.0846)
 -->
<!-- Title: dependencies Pages: 1 -->
<svg width="504pt" height="284pt"
 viewBox="0.00 0.00 504.00 284.00" xmlns="http://www.w3.org/2000/svg" xmlns:xlink="http://www.w3.org/1999/xlink">
<g id="graph0" class="graph" transform="scale(1 1) rotate(0) translate(4 280)">
<title>dependencies</title>
<polygon fill="white" stroke="transparent" points="-4,4 -4,-280 500,-280 500,4 -4,4"/>
<text text-anchor="start" x="227.01" y="-42.4" font-family="sans-serif" font-weight="bold" font-size="14.00">Legend</text>
<polygon fill="#ffffb3" stroke="transparent" points="14,-10 14,-30 34,-30 34,-10 14,-10"/>
<text text-anchor="start" x="37.63" y="-15.4" font-family="sans-serif" font-size="14.00"> &#160;Declarations</text>
<polygon fill="#8dd3c7" stroke="transparent" points="127,-10 127,-30 147,-30 147,-10 127,-10"/>
<text text-anchor="start" x="150.73" y="-15.4" font-family="sans-serif" font-size="14.00"> &#160;Module</text>
<polygon fill="#80b1d3" stroke="transparent" points="213,-10 213,-30 233,-30 233,-10 213,-10"/>
<text text-anchor="start" x="236.78" y="-15.4" font-family="sans-serif" font-size="14.00"> &#160;Bootstrap</text>
<polygon fill="#fdb462" stroke="transparent" points="310,-10 310,-30 330,-30 330,-10 310,-10"/>
<text text-anchor="start" x="333.67" y="-15.4" font-family="sans-serif" font-size="14.00"> &#160;Providers</text>
<polygon fill="#fb8072" stroke="transparent" points="406,-10 406,-30 426,-30 426,-10 406,-10"/>
<text text-anchor="start" x="429.73" y="-15.4" font-family="sans-serif" font-size="14.00"> &#160;Exports</text>
<g id="clust1" class="cluster">
<title>cluster_CallOutModule</title>
<polygon fill="none" stroke="black" stroke-dasharray="1,5" points="167,-70 167,-268 329,-268 329,-70 167,-70"/>
</g>
<g id="clust2" class="cluster">
<title>cluster_CallOutModule_declarations</title>
<polygon fill="none" stroke="black" points="177,-78 177,-130 319,-130 319,-78 177,-78"/>
</g>
<g id="clust5" class="cluster">
<title>cluster_CallOutModule_exports</title>
<polygon fill="none" stroke="black" points="175,-208 175,-260 321,-260 321,-208 175,-208"/>
</g>
<!-- CallOutComponent -->
<g id="node1" class="node">
<title>CallOutComponent</title>
<polygon fill="#ffffb3" stroke="black" points="310.66,-122 185.34,-122 185.34,-86 310.66,-86 310.66,-122"/>
<text text-anchor="middle" x="248" y="-99.8" font-family="Times,serif" font-size="14.00">CallOutComponent</text>
</g>
<!-- CallOutModule -->
<g id="node2" class="node">
<title>CallOutModule</title>
<polygon fill="#8dd3c7" stroke="black" points="299.88,-187 296.88,-191 275.88,-191 272.88,-187 196.12,-187 196.12,-151 299.88,-151 299.88,-187"/>
<text text-anchor="middle" x="248" y="-164.8" font-family="Times,serif" font-size="14.00">CallOutModule</text>
</g>
<!-- CallOutComponent&#45;&gt;CallOutModule -->
<g id="edge1" class="edge">
<title>CallOutComponent&#45;&gt;CallOutModule</title>
<path fill="none" stroke="black" d="M248,-122.11C248,-122.11 248,-140.99 248,-140.99"/>
<polygon fill="black" stroke="black" points="244.5,-140.99 248,-150.99 251.5,-140.99 244.5,-140.99"/>
</g>
<!-- CallOutComponent  -->
<g id="node3" class="node">
<title>CallOutComponent </title>
<polygon fill="#fb8072" stroke="black" points="312.66,-252 183.34,-252 183.34,-216 312.66,-216 312.66,-252"/>
<text text-anchor="middle" x="248" y="-229.8" font-family="Times,serif" font-size="14.00">CallOutComponent </text>
</g>
<!-- CallOutModule&#45;&gt;CallOutComponent  -->
<g id="edge2" class="edge">
<title>CallOutModule&#45;&gt;CallOutComponent </title>
<path fill="none" stroke="black" stroke-dasharray="5,2" d="M248,-187.11C248,-187.11 248,-205.99 248,-205.99"/>
<polygon fill="black" stroke="black" points="244.5,-205.99 248,-215.99 251.5,-205.99 244.5,-205.99"/>
</g>
</g>
</svg>
