<svg xmlns="http://www.w3.org/2000/svg" width="48" height="48" viewBox="0 0 48 48">
  <g id="Group_696" data-name="Group 696" transform="translate(20511 18064)">
    <g id="Path_417" data-name="Path 417" transform="translate(-20511 -18064)" fill="#fff" opacity="0">
      <path d="M 47.5 47.5 L 0.5 47.5 L 0.5 0.5 L 47.5 0.5 L 47.5 47.5 Z" stroke="none"/>
      <path d="M 1 1 L 1 47 L 47 47 L 47 1 L 1 1 M 0 0 L 48 0 L 48 48 L 0 48 L 0 0 Z" stroke="none" fill="#707070"/>
    </g>
    <path id="Path_1" data-name="Path 1" d="M88.133,24V13.067h3.733L92.4,8.8H88.133V6.133c0-1.2.4-2.133,2.133-2.133h2.267V.133C92,.133,90.667,0,89.2,0,86,0,83.733,2,83.733,5.6V8.8H80v4.267h3.733V24Z" transform="translate(-20573 -18053)" fill="#fafafa" fill-rule="evenodd"/>
  </g>
</svg>
