<?xml version="1.0" encoding="UTF-8" standalone="no"?>
<!DOCTYPE svg PUBLIC "-//W3C//DTD SVG 1.1//EN"
 "http://www.w3.org/Graphics/SVG/1.1/DTD/svg11.dtd">
<!-- Generated by graphviz version 2.44.1 (20200629.0846)
 -->
<!-- Title: dependencies Pages: 1 -->
<svg width="504pt" height="284pt"
 viewBox="0.00 0.00 504.00 284.00" xmlns="http://www.w3.org/2000/svg" xmlns:xlink="http://www.w3.org/1999/xlink">
<g id="graph0" class="graph" transform="scale(1 1) rotate(0) translate(4 280)">
<title>dependencies</title>
<polygon fill="white" stroke="transparent" points="-4,4 -4,-280 500,-280 500,4 -4,4"/>
<text text-anchor="start" x="227.01" y="-42.4" font-family="sans-serif" font-weight="bold" font-size="14.00">Legend</text>
<polygon fill="#ffffb3" stroke="transparent" points="14,-10 14,-30 34,-30 34,-10 14,-10"/>
<text text-anchor="start" x="37.63" y="-15.4" font-family="sans-serif" font-size="14.00"> &#160;Declarations</text>
<polygon fill="#8dd3c7" stroke="transparent" points="127,-10 127,-30 147,-30 147,-10 127,-10"/>
<text text-anchor="start" x="150.73" y="-15.4" font-family="sans-serif" font-size="14.00"> &#160;Module</text>
<polygon fill="#80b1d3" stroke="transparent" points="213,-10 213,-30 233,-30 233,-10 213,-10"/>
<text text-anchor="start" x="236.78" y="-15.4" font-family="sans-serif" font-size="14.00"> &#160;Bootstrap</text>
<polygon fill="#fdb462" stroke="transparent" points="310,-10 310,-30 330,-30 330,-10 310,-10"/>
<text text-anchor="start" x="333.67" y="-15.4" font-family="sans-serif" font-size="14.00"> &#160;Providers</text>
<polygon fill="#fb8072" stroke="transparent" points="406,-10 406,-30 426,-30 426,-10 406,-10"/>
<text text-anchor="start" x="429.73" y="-15.4" font-family="sans-serif" font-size="14.00"> &#160;Exports</text>
<g id="clust1" class="cluster">
<title>cluster_BookOverviewModule</title>
<polygon fill="none" stroke="black" stroke-dasharray="1,5" points="82,-70 82,-268 414,-268 414,-70 82,-70"/>
</g>
<g id="clust2" class="cluster">
<title>cluster_BookOverviewModule_declarations</title>
<polygon fill="none" stroke="black" points="224,-78 224,-130 406,-130 406,-78 224,-78"/>
</g>
<g id="clust4" class="cluster">
<title>cluster_BookOverviewModule_imports</title>
<polygon fill="none" stroke="black" points="90,-78 90,-130 216,-130 216,-78 90,-78"/>
</g>
<g id="clust5" class="cluster">
<title>cluster_BookOverviewModule_exports</title>
<polygon fill="none" stroke="black" points="155,-208 155,-260 341,-260 341,-208 155,-208"/>
</g>
<!-- BookOverviewComponent -->
<g id="node1" class="node">
<title>BookOverviewComponent</title>
<polygon fill="#ffffb3" stroke="black" points="398.36,-122 231.64,-122 231.64,-86 398.36,-86 398.36,-122"/>
<text text-anchor="middle" x="315" y="-99.8" font-family="Times,serif" font-size="14.00">BookOverviewComponent</text>
</g>
<!-- BookOverviewModule -->
<g id="node2" class="node">
<title>BookOverviewModule</title>
<polygon fill="#8dd3c7" stroke="black" points="320.58,-187 317.58,-191 296.58,-191 293.58,-187 175.42,-187 175.42,-151 320.58,-151 320.58,-187"/>
<text text-anchor="middle" x="248" y="-164.8" font-family="Times,serif" font-size="14.00">BookOverviewModule</text>
</g>
<!-- BookOverviewComponent&#45;&gt;BookOverviewModule -->
<g id="edge1" class="edge">
<title>BookOverviewComponent&#45;&gt;BookOverviewModule</title>
<path fill="none" stroke="black" d="M276.05,-122.11C276.05,-122.11 276.05,-140.99 276.05,-140.99"/>
<polygon fill="black" stroke="black" points="272.55,-140.99 276.05,-150.99 279.55,-140.99 272.55,-140.99"/>
</g>
<!-- BookOverviewComponent  -->
<g id="node4" class="node">
<title>BookOverviewComponent </title>
<polygon fill="#fb8072" stroke="black" points="333.36,-252 162.64,-252 162.64,-216 333.36,-216 333.36,-252"/>
<text text-anchor="middle" x="248" y="-229.8" font-family="Times,serif" font-size="14.00">BookOverviewComponent </text>
</g>
<!-- BookOverviewModule&#45;&gt;BookOverviewComponent  -->
<g id="edge3" class="edge">
<title>BookOverviewModule&#45;&gt;BookOverviewComponent </title>
<path fill="none" stroke="black" stroke-dasharray="5,2" d="M248,-187.11C248,-187.11 248,-205.99 248,-205.99"/>
<polygon fill="black" stroke="black" points="244.5,-205.99 248,-215.99 251.5,-205.99 244.5,-205.99"/>
</g>
<!-- CarouselModule -->
<g id="node3" class="node">
<title>CarouselModule</title>
<polygon fill="#8dd3c7" stroke="black" points="207.81,-122 204.81,-126 183.81,-126 180.81,-122 98.19,-122 98.19,-86 207.81,-86 207.81,-122"/>
<text text-anchor="middle" x="153" y="-99.8" font-family="Times,serif" font-size="14.00">CarouselModule</text>
</g>
<!-- CarouselModule&#45;&gt;BookOverviewModule -->
<g id="edge2" class="edge">
<title>CarouselModule&#45;&gt;BookOverviewModule</title>
<path fill="none" stroke="black" d="M191.56,-122.11C191.56,-122.11 191.56,-140.99 191.56,-140.99"/>
<polygon fill="black" stroke="black" points="188.06,-140.99 191.56,-150.99 195.06,-140.99 188.06,-140.99"/>
</g>
</g>
</svg>
