<?xml version="1.0" encoding="UTF-8" standalone="no"?>
<!DOCTYPE svg PUBLIC "-//W3C//DTD SVG 1.1//EN"
 "http://www.w3.org/Graphics/SVG/1.1/DTD/svg11.dtd">
<!-- Generated by graphviz version 2.44.1 (20200629.0846)
 -->
<!-- Title: dependencies Pages: 1 -->
<svg width="504pt" height="284pt"
 viewBox="0.00 0.00 504.00 284.00" xmlns="http://www.w3.org/2000/svg" xmlns:xlink="http://www.w3.org/1999/xlink">
<g id="graph0" class="graph" transform="scale(1 1) rotate(0) translate(4 280)">
<title>dependencies</title>
<polygon fill="white" stroke="transparent" points="-4,4 -4,-280 500,-280 500,4 -4,4"/>
<text text-anchor="start" x="227.01" y="-42.4" font-family="sans-serif" font-weight="bold" font-size="14.00">Legend</text>
<polygon fill="#ffffb3" stroke="transparent" points="14,-10 14,-30 34,-30 34,-10 14,-10"/>
<text text-anchor="start" x="37.63" y="-15.4" font-family="sans-serif" font-size="14.00"> &#160;Declarations</text>
<polygon fill="#8dd3c7" stroke="transparent" points="127,-10 127,-30 147,-30 147,-10 127,-10"/>
<text text-anchor="start" x="150.73" y="-15.4" font-family="sans-serif" font-size="14.00"> &#160;Module</text>
<polygon fill="#80b1d3" stroke="transparent" points="213,-10 213,-30 233,-30 233,-10 213,-10"/>
<text text-anchor="start" x="236.78" y="-15.4" font-family="sans-serif" font-size="14.00"> &#160;Bootstrap</text>
<polygon fill="#fdb462" stroke="transparent" points="310,-10 310,-30 330,-30 330,-10 310,-10"/>
<text text-anchor="start" x="333.67" y="-15.4" font-family="sans-serif" font-size="14.00"> &#160;Providers</text>
<polygon fill="#fb8072" stroke="transparent" points="406,-10 406,-30 426,-30 426,-10 406,-10"/>
<text text-anchor="start" x="429.73" y="-15.4" font-family="sans-serif" font-size="14.00"> &#160;Exports</text>
<g id="clust1" class="cluster">
<title>cluster_CarouselModule</title>
<polygon fill="none" stroke="black" stroke-dasharray="1,5" points="76,-70 76,-268 420,-268 420,-70 76,-70"/>
</g>
<g id="clust6" class="cluster">
<title>cluster_CarouselModule_exports</title>
<polygon fill="none" stroke="black" points="84,-208 84,-260 412,-260 412,-208 84,-208"/>
</g>
<g id="clust2" class="cluster">
<title>cluster_CarouselModule_declarations</title>
<polygon fill="none" stroke="black" points="87,-78 87,-130 409,-130 409,-78 87,-78"/>
</g>
<!-- CarouselComponent -->
<g id="node1" class="node">
<title>CarouselComponent</title>
<polygon fill="#ffffb3" stroke="black" points="400.59,-122 269.41,-122 269.41,-86 400.59,-86 400.59,-122"/>
<text text-anchor="middle" x="335" y="-99.8" font-family="Times,serif" font-size="14.00">CarouselComponent</text>
</g>
<!-- CarouselModule -->
<g id="node3" class="node">
<title>CarouselModule</title>
<polygon fill="#8dd3c7" stroke="black" points="228.81,-187 225.81,-191 204.81,-191 201.81,-187 119.19,-187 119.19,-151 228.81,-151 228.81,-187"/>
<text text-anchor="middle" x="174" y="-164.8" font-family="Times,serif" font-size="14.00">CarouselModule</text>
</g>
<!-- CarouselComponent&#45;&gt;CarouselModule -->
<g id="edge1" class="edge">
<title>CarouselComponent&#45;&gt;CarouselModule</title>
<path fill="none" stroke="black" d="M356.93,-122.02C356.93,-139.37 356.93,-163 356.93,-163 356.93,-163 238.89,-163 238.89,-163"/>
<polygon fill="black" stroke="black" points="238.89,-159.5 228.89,-163 238.89,-166.5 238.89,-159.5"/>
</g>
<!-- CarouselItemComponent -->
<g id="node2" class="node">
<title>CarouselItemComponent</title>
<polygon fill="#ffffb3" stroke="black" points="251.25,-122 94.75,-122 94.75,-86 251.25,-86 251.25,-122"/>
<text text-anchor="middle" x="173" y="-99.8" font-family="Times,serif" font-size="14.00">CarouselItemComponent</text>
</g>
<!-- CarouselItemComponent&#45;&gt;CarouselModule -->
<g id="edge2" class="edge">
<title>CarouselItemComponent&#45;&gt;CarouselModule</title>
<path fill="none" stroke="black" d="M174,-122.11C174,-122.11 174,-140.99 174,-140.99"/>
<polygon fill="black" stroke="black" points="170.5,-140.99 174,-150.99 177.5,-140.99 170.5,-140.99"/>
</g>
<!-- CarouselComponent  -->
<g id="node4" class="node">
<title>CarouselComponent </title>
<polygon fill="#fb8072" stroke="black" points="404.09,-252 269.91,-252 269.91,-216 404.09,-216 404.09,-252"/>
<text text-anchor="middle" x="337" y="-229.8" font-family="Times,serif" font-size="14.00">CarouselComponent </text>
</g>
<!-- CarouselModule&#45;&gt;CarouselComponent  -->
<g id="edge3" class="edge">
<title>CarouselModule&#45;&gt;CarouselComponent </title>
<path fill="none" stroke="black" stroke-dasharray="5,2" d="M228.66,-175C267.69,-175 313.32,-175 313.32,-175 313.32,-175 313.32,-205.98 313.32,-205.98"/>
<polygon fill="black" stroke="black" points="309.82,-205.98 313.32,-215.98 316.82,-205.98 309.82,-205.98"/>
</g>
<!-- CarouselItemComponent  -->
<g id="node5" class="node">
<title>CarouselItemComponent </title>
<polygon fill="#fb8072" stroke="black" points="252.25,-252 91.75,-252 91.75,-216 252.25,-216 252.25,-252"/>
<text text-anchor="middle" x="172" y="-229.8" font-family="Times,serif" font-size="14.00">CarouselItemComponent </text>
</g>
<!-- CarouselModule&#45;&gt;CarouselItemComponent  -->
<g id="edge4" class="edge">
<title>CarouselModule&#45;&gt;CarouselItemComponent </title>
<path fill="none" stroke="black" stroke-dasharray="5,2" d="M174,-187.11C174,-187.11 174,-205.99 174,-205.99"/>
<polygon fill="black" stroke="black" points="170.5,-205.99 174,-215.99 177.5,-205.99 170.5,-205.99"/>
</g>
</g>
</svg>
