<svg id="Layer_1" data-name="Layer 1" xmlns="http://www.w3.org/2000/svg" viewBox="0 0 1196.63 115.54"><defs><style>.cls-1{fill:#364a68;}.cls-2{fill:#eaecef;}</style></defs><path class="cls-1" d="M38.47,76.5c0,6.87-1.1,11.61-3.21,14.44-3.1,3.94-8.81,6.36-15.32,6.36C13,97.3,7.23,94.78,4.22,90.54c-2.3-3.34-2.9-5.86-2.9-11.72V66.7h15V77.51c0,5.55.8,7.27,3.3,7.27a3,3,0,0,0,2.81-1.92c.3-.91.4-1.72.4-4.75V23.47H38.47Z" transform="translate(-0.68 -1.23)"/><path class="cls-1" d="M58.19,82.66,56.29,96H41L54.29,23.47H73.61L87.13,96H71.31l-1.8-13.33ZM63.7,35.59l-4.41,35h9Z" transform="translate(-0.68 -1.23)"/><path class="cls-1" d="M145.61,96h-15V47.91L122.18,96h-9.41l-8.21-48.08V96H89.64V23.47h22.73l5.4,31.82,5.61-31.82h22.23Z" transform="translate(-0.68 -1.23)"/><path class="cls-1" d="M184.26,52.06V65H168V83.06H188V96H152.72V23.47h33.34V36.3H168V52.06Z" transform="translate(-0.68 -1.23)"/><path class="cls-1" d="M217.31,46.8V41.05c0-4.24-1.71-6.57-4.91-6.57s-4.81,1.82-4.81,5.05c0,4.14,1.21,5.66,9.92,13.44,12.41,11,15.72,16.36,15.72,26,0,11.82-7.11,18.38-19.83,18.38-9.51,0-16.72-3.33-19.62-9-1.61-3.23-2.11-5.75-2.11-11.91V70.94h15.62v6.67c0,5,1.81,7.47,5.41,7.47,3.21,0,5-2,5-5.55,0-5-2-8-8.71-13.64-13-10.8-16.73-16.46-16.73-25.55,0-11.31,7.31-18.18,19.53-18.18,9.71,0,17.32,4.55,19.33,11.51.7,2.73.9,5.26,1,13.13Z" transform="translate(-0.68 -1.23)"/><path class="cls-1" d="M283.3,46.8V41.05c0-4.24-1.71-6.57-4.91-6.57s-4.81,1.82-4.81,5.05c0,4.14,1.2,5.66,9.92,13.44,12.41,11,15.72,16.36,15.72,26,0,11.82-7.11,18.38-19.83,18.38-9.51,0-16.72-3.33-19.63-9-1.6-3.23-2.1-5.75-2.1-11.91V70.94h15.62v6.67c0,5,1.8,7.47,5.41,7.47,3.2,0,5-2,5-5.55,0-5-2-8-8.72-13.64-13-10.8-16.72-16.46-16.72-25.55,0-11.31,7.31-18.18,19.53-18.18,9.71,0,17.32,4.55,19.32,11.51.7,2.73.9,5.26,1,13.13Z" transform="translate(-0.68 -1.23)"/><path class="cls-1" d="M315.54,96H302.92V80h12.62Z" transform="translate(-0.68 -1.23)"/><path class="cls-1" d="M400.35,96h-15V47.91L376.92,96h-9.41L359.3,47.91V96H344.38V23.47h22.73l5.4,31.82,5.61-31.82h22.23Z" transform="translate(-0.68 -1.23)"/><path class="cls-1" d="M427.39,60.14V55.79c0-4.54-1.1-6.26-3.81-6.26-2.5,0-3.5,1.31-3.5,4.65V81.85c0,3.64.9,5,3.5,5s3.81-1.52,3.81-5.25V73h13.42v7.88c0,5.15-.9,8.18-3.31,10.91-3.3,3.63-7.71,5.35-14.22,5.35C412.07,97.1,406,91.34,406,80.74V54.68c0-10,6-15.25,17.32-15.25,8.31,0,13.92,2.63,16,7.58a24.85,24.85,0,0,1,1.51,8.78v4.35Z" transform="translate(-0.68 -1.23)"/><path class="cls-1" d="M467.44,23.47c5.41,0,10,1.42,12.92,3.94,2.5,2.12,4.2,6.16,4.81,11.62.3,2.72.5,12.72.5,24.64,0,13.94-.3,18.18-1.31,22-2.2,7.37-6.8,10.3-16.42,10.3H445.61V23.47Zm-4.8,61.21c7.41-.41,7.51-.71,7.71-23.23-.1-10.61-.3-16.77-.4-18.69-.31-5.95-1.51-7.37-6.41-7.67h-2.81V84.68Z" transform="translate(-0.68 -1.23)"/><path class="cls-1" d="M491.37,45.59c0-9.19,1.21-14.24,4.21-17.77s9.11-5.66,16.12-5.66c8.21,0,14.42,3.23,17.63,9.29,1.9,3.64,2.3,6.16,2.3,13.94V71.65c0,10-.6,13.74-2.71,17.17-3.4,5.35-9.71,8.48-17.32,8.48-8.21,0-15.12-3.13-17.72-8.18-1.5-2.72-1.8-4.24-2.2-10.4-.21-2.83-.31-5.66-.31-7.07Zm25.34,0c0-9.29-1-11.51-5.11-11.51a4.19,4.19,0,0,0-4.2,2.83c-.6,1.71-.6,1.91-.7,8.68V71.65c.1,8.79.1,9,.7,10.5.8,2,2.1,3,4.1,3a4.44,4.44,0,0,0,4.41-2.72c.5-1.32.6-2.63.8-10.81Z" transform="translate(-0.68 -1.23)"/><path class="cls-1" d="M580.79,96H563.37L553.06,56.5V96H537.94V23.47h17l10.41,38.79V23.47h15.42Z" transform="translate(-0.68 -1.23)"/><path class="cls-1" d="M630.66,96H613.24L602.92,56.5V96H587.8V23.47h17l10.41,38.79V23.47h15.42Z" transform="translate(-0.68 -1.23)"/><path class="cls-1" d="M669.21,52.06V65H653V83.06h19.93V96H637.67V23.47H671V36.3H653V52.06Z" transform="translate(-0.68 -1.23)"/><path class="cls-1" d="M712,83.16V96H678V23.47h15.42V83.16Z" transform="translate(-0.68 -1.23)"/><path class="cls-1" d="M748.82,83.16V96h-34V23.47h15.42V83.16Z" transform="translate(-0.68 -1.23)"/><path class="cls-1" d="M804.9,52.76V65.39H789.77V96H774.35V23.47H807.1V36.6H789.77V52.76Z" transform="translate(-0.68 -1.23)"/><path class="cls-1" d="M811.2,45.59c0-9.19,1.2-14.24,4.21-17.77s9.11-5.66,16.12-5.66c8.21,0,14.42,3.23,17.62,9.29,1.91,3.64,2.31,6.16,2.31,13.94V71.65c0,10-.6,13.74-2.71,17.17-3.4,5.35-9.71,8.48-17.32,8.48-8.21,0-15.12-3.13-17.72-8.18-1.51-2.72-1.81-4.24-2.21-10.4-.2-2.83-.3-5.66-.3-7.07Zm25.34,0c0-9.29-1-11.51-5.11-11.51a4.21,4.21,0,0,0-4.21,2.83c-.6,1.71-.6,1.91-.7,8.68V71.65c.1,8.79.1,9,.7,10.5a4.15,4.15,0,0,0,4.11,3,4.45,4.45,0,0,0,4.41-2.72c.5-1.32.6-2.63.8-10.81Z" transform="translate(-0.68 -1.23)"/><path class="cls-1" d="M897.82,76.4a65.67,65.67,0,0,1-.5,6.66c-.6,5.36-2.51,8.59-6.61,11.11-3.21,2-7.81,3.13-12.82,3.13-8.71,0-15.62-3.43-18.52-9.19-1.41-2.62-2-6.36-2-11.71V23.47h15.42V76.4c0,6.26,1.11,8.28,4.71,8.28,3.4,0,4.71-2.22,4.71-8.28V23.47h15.62Z" transform="translate(-0.68 -1.23)"/><path class="cls-1" d="M947.38,96H930L919.65,56.5V96H904.53V23.47h17L932,62.26V23.47h15.42Z" transform="translate(-0.68 -1.23)"/><path class="cls-1" d="M976.22,23.47c5.41,0,10,1.42,12.92,3.94,2.5,2.12,4.2,6.16,4.81,11.62.3,2.72.5,12.72.5,24.64,0,13.94-.3,18.18-1.3,22-2.21,7.37-6.81,10.3-16.43,10.3H954.39V23.47Zm-4.8,61.21c7.41-.41,7.51-.71,7.71-23.23-.1-10.61-.3-16.77-.4-18.69-.31-5.95-1.51-7.37-6.41-7.67h-2.81V84.68Z" transform="translate(-0.68 -1.23)"/><path class="cls-1" d="M1013.87,82.66,1012,96H996.65L1010,23.47h19.32L1042.81,96H1027l-1.8-13.33Zm5.51-47.07-4.41,35h9Z" transform="translate(-0.68 -1.23)"/><path class="cls-1" d="M1068.24,96h-15.32V36.2h-13.71V23.47h42.65V36.2h-13.62Z" transform="translate(-0.68 -1.23)"/><path class="cls-1" d="M1101.49,96h-15.42V23.47h15.42Z" transform="translate(-0.68 -1.23)"/><path class="cls-1" d="M1107.9,45.59c0-9.19,1.2-14.24,4.2-17.77s9.12-5.66,16.13-5.66c8.21,0,14.42,3.23,17.62,9.29,1.9,3.64,2.3,6.16,2.3,13.94V71.65c0,10-.6,13.74-2.7,17.17-3.41,5.35-9.71,8.48-17.32,8.48-8.22,0-15.12-3.13-17.73-8.18-1.5-2.72-1.8-4.24-2.2-10.4-.2-2.83-.3-5.66-.3-7.07Zm25.33,0c0-9.29-1-11.51-5.1-11.51a4.2,4.2,0,0,0-4.21,2.83c-.6,1.71-.6,1.91-.7,8.68V71.65c.1,8.79.1,9,.7,10.5.8,2,2.1,3,4.11,3a4.43,4.43,0,0,0,4.4-2.72c.5-1.32.6-2.63.8-10.81Z" transform="translate(-0.68 -1.23)"/><path class="cls-1" d="M1197.32,96h-17.43L1169.58,56.5V96h-15.12V23.47h17l10.42,38.79V23.47h15.42Z" transform="translate(-0.68 -1.23)"/><rect class="cls-2" width="1196.63" height="7.83"/><rect class="cls-2" y="107.71" width="1196.63" height="7.83"/></svg>