<svg id="luddy_lockup_WEB_h6" xmlns="http://www.w3.org/2000/svg" width="372.009" height="60.214" viewBox="0 0 372.009 60.214">
  <rect id="Rectangle_1799" data-name="Rectangle 1799" width="40.509" height="57.544" fill="#900"/>
  <path id="Path_340" data-name="Path 340" d="M27.88,14.47v2.514h1.746V31.023h-3.7V12.514H27.88V10H18.66v2.514h1.956V31.023h-3.7V16.984H18.66V14.47H10v2.514h1.956V33.258l3.213,3.213h5.448v3.771H18.66v3.283H27.88V40.242H25.924V36.47h5.448l3.213-3.213V16.984H36.54V14.47Z" transform="translate(-3.016 -3.016)" fill="#fff"/>
  <g id="Group_203" data-name="Group 203" transform="translate(50.985 7.026)">
    <g id="Group_202" data-name="Group 202" transform="translate(0)">
      <path id="Path_341" data-name="Path 341" d="M1.993-24.165H5.455v14.027H11.8v2.85H1.993Z" transform="translate(-1.993 24.165)"/>
      <path id="Path_342" data-name="Path 342" d="M7.512-7.009a7.724,7.724,0,0,1-2.638-.412,4.379,4.379,0,0,1-1.8-1.191,4.7,4.7,0,0,1-1.046-1.915,9.166,9.166,0,0,1-.334-2.594V-24.165H5.163v10.832a7.613,7.613,0,0,0,.122,1.525,2.772,2.772,0,0,0,.423,1.058,1.705,1.705,0,0,0,.735.612,2.728,2.728,0,0,0,1.113.2,2.029,2.029,0,0,0,1.837-.824A4.629,4.629,0,0,0,9.95-13.31V-24.165h3.306v11.022a9.694,9.694,0,0,1-.323,2.605A4.922,4.922,0,0,1,11.91-8.612a4.373,4.373,0,0,1-1.781,1.191A7.635,7.635,0,0,1,7.512-7.009Z" transform="translate(9.777 24.165)"/>
      <path id="Path_343" data-name="Path 343" d="M1.993-24.165h4.42a11.426,11.426,0,0,1,3.117.4,5.828,5.828,0,0,1,2.449,1.358,6.346,6.346,0,0,1,1.6,2.572,12.447,12.447,0,0,1,.568,4.064,14.194,14.194,0,0,1-.267,2.906,8.763,8.763,0,0,1-.746,2.215,5.985,5.985,0,0,1-1.18,1.581,6.018,6.018,0,0,1-1.547,1.046,7.308,7.308,0,0,1-1.87.568,13.165,13.165,0,0,1-2.126.167H1.993ZM6.735-10.182a4.958,4.958,0,0,0,1.837-.3A2.66,2.66,0,0,0,9.8-11.44a4.372,4.372,0,0,0,.668-1.726,14.3,14.3,0,0,0,.212-2.605,13.441,13.441,0,0,0-.212-2.516A4.345,4.345,0,0,0,9.8-19.979a2.735,2.735,0,0,0-1.225-.957,5.082,5.082,0,0,0-1.859-.3H5.455v11.055Z" transform="translate(23.613 24.165)"/>
      <path id="Path_344" data-name="Path 344" d="M1.993-24.165h4.42a11.426,11.426,0,0,1,3.117.4,5.828,5.828,0,0,1,2.449,1.358,6.346,6.346,0,0,1,1.6,2.572,12.447,12.447,0,0,1,.568,4.064,14.194,14.194,0,0,1-.267,2.906,8.763,8.763,0,0,1-.746,2.215,5.985,5.985,0,0,1-1.18,1.581,6.018,6.018,0,0,1-1.547,1.046,7.308,7.308,0,0,1-1.87.568,13.165,13.165,0,0,1-2.126.167H1.993ZM6.735-10.182a4.958,4.958,0,0,0,1.837-.3A2.66,2.66,0,0,0,9.8-11.44a4.372,4.372,0,0,0,.668-1.726,14.3,14.3,0,0,0,.212-2.605,13.441,13.441,0,0,0-.212-2.516A4.345,4.345,0,0,0,9.8-19.979a2.735,2.735,0,0,0-1.225-.957,5.082,5.082,0,0,0-1.859-.3H5.455v11.055Z" transform="translate(37.886 24.165)"/>
      <path id="Path_345" data-name="Path 345" d="M4.838-13.9.1-24.165h3.54l3.006,7.114h.045l3.006-7.114h3.373L8.3-13.923v6.635H4.838Z" transform="translate(52.73 24.165)"/>
    </g>
  </g>
  <g id="Group_205" data-name="Group 205" transform="translate(50.363 30.717)">
    <g id="Group_204" data-name="Group 204" transform="translate(0 0)">
      <path id="Path_346" data-name="Path 346" d="M3.891-4.159a3.7,3.7,0,0,1-1.115-.162,3.047,3.047,0,0,1-.9-.467,3.329,3.329,0,0,1-.713-.732,4.752,4.752,0,0,1-.531-.966l.953-.434a4.239,4.239,0,0,0,.389.719,2.52,2.52,0,0,0,.512.564,2.129,2.129,0,0,0,.635.363,2.1,2.1,0,0,0,.771.13,2.453,2.453,0,0,0,.778-.11,1.7,1.7,0,0,0,.577-.318,1.4,1.4,0,0,0,.363-.5,1.616,1.616,0,0,0,.13-.655,1.6,1.6,0,0,0-.169-.745,2.318,2.318,0,0,0-.447-.564,3.611,3.611,0,0,0-.642-.441c-.246-.13-.5-.253-.758-.382-.207-.1-.421-.2-.635-.3a6.269,6.269,0,0,1-.616-.344,3.829,3.829,0,0,1-.551-.415,2.616,2.616,0,0,1-.447-.512,2.245,2.245,0,0,1-.3-.642,2.58,2.58,0,0,1-.11-.81,2.35,2.35,0,0,1,.2-.985,2.4,2.4,0,0,1,.564-.778,2.579,2.579,0,0,1,.849-.5,3.089,3.089,0,0,1,1.056-.181,3.091,3.091,0,0,1,1.044.169,2.875,2.875,0,0,1,.823.447,3.136,3.136,0,0,1,.622.655,4.361,4.361,0,0,1,.441.8l-.953.467a4.674,4.674,0,0,0-.318-.59,2.394,2.394,0,0,0-.415-.5,1.907,1.907,0,0,0-.551-.337,1.879,1.879,0,0,0-.706-.13,2.017,2.017,0,0,0-.642.1,1.482,1.482,0,0,0-.493.292,1.29,1.29,0,0,0-.311.454,1.378,1.378,0,0,0-.11.57,1.581,1.581,0,0,0,.162.745,1.954,1.954,0,0,0,.441.564,3.087,3.087,0,0,0,.635.447c.233.13.48.259.739.382.207.1.421.207.635.311s.421.22.622.344a5.92,5.92,0,0,1,.557.415,2.894,2.894,0,0,1,.454.519,2.593,2.593,0,0,1,.3.648,2.8,2.8,0,0,1,.11.8A2.5,2.5,0,0,1,6.62-5.74a2.385,2.385,0,0,1-.583.823,2.875,2.875,0,0,1-.927.557A3.584,3.584,0,0,1,3.891-4.159Z" transform="translate(-0.631 14.328)"/>
      <path id="Path_347" data-name="Path 347" d="M4.366-4.146A3.218,3.218,0,0,1,2.907-4.47a2.932,2.932,0,0,1-1.1-.966,4.786,4.786,0,0,1-.7-1.6A9.088,9.088,0,0,1,.872-9.26a8.533,8.533,0,0,1,.246-2.178,4.782,4.782,0,0,1,.713-1.588A3.045,3.045,0,0,1,2.94-14a3.1,3.1,0,0,1,1.439-.331,2.889,2.889,0,0,1,1.2.233,2.684,2.684,0,0,1,.875.642,3.368,3.368,0,0,1,.6.979,6.9,6.9,0,0,1,.363,1.251l-1.037.188a6.327,6.327,0,0,0-.285-.979,2.509,2.509,0,0,0-.408-.713,1.6,1.6,0,0,0-.57-.428,1.894,1.894,0,0,0-.765-.149,1.878,1.878,0,0,0-1.011.279,2.2,2.2,0,0,0-.745.791,4.292,4.292,0,0,0-.454,1.27,8.353,8.353,0,0,0-.156,1.692A8.982,8.982,0,0,0,2.143-7.5a4.121,4.121,0,0,0,.46,1.29,2.18,2.18,0,0,0,.752.8,1.919,1.919,0,0,0,1.024.272,1.948,1.948,0,0,0,.771-.143,1.586,1.586,0,0,0,.59-.434,2.911,2.911,0,0,0,.447-.745A6.435,6.435,0,0,0,6.5-7.536l1.018.175a6.609,6.609,0,0,1-.4,1.3,3.582,3.582,0,0,1-.642,1.018,2.7,2.7,0,0,1-.907.668A3.052,3.052,0,0,1,4.366-4.146Z" transform="translate(6.555 14.328)"/>
      <path id="Path_348" data-name="Path 348" d="M1.448-14.068H2.562V-9.94h3.98v-4.129H7.657v9.826H6.542V-8.916H2.562v4.673H1.448Z" transform="translate(14.16 14.25)"/>
      <path id="Path_349" data-name="Path 349" d="M4.431-4.133A3.1,3.1,0,0,1,3-4.464a3.165,3.165,0,0,1-1.128-.979,4.816,4.816,0,0,1-.739-1.6A7.985,7.985,0,0,1,.872-9.234a8.018,8.018,0,0,1,.266-2.191,4.78,4.78,0,0,1,.739-1.594A3.23,3.23,0,0,1,3-14a3.1,3.1,0,0,1,1.426-.331A3.084,3.084,0,0,1,5.844-14a3.23,3.23,0,0,1,1.128.979,5.048,5.048,0,0,1,.739,1.594,8.278,8.278,0,0,1,.266,2.191A8.243,8.243,0,0,1,7.71-7.043a5.087,5.087,0,0,1-.739,1.6,3.165,3.165,0,0,1-1.128.979A3.084,3.084,0,0,1,4.431-4.133Zm0-1.011a1.9,1.9,0,0,0,1-.272,2.227,2.227,0,0,0,.758-.791A4.494,4.494,0,0,0,6.68-7.49a8.242,8.242,0,0,0,.169-1.743,8.158,8.158,0,0,0-.169-1.731,4.449,4.449,0,0,0-.486-1.277,2.227,2.227,0,0,0-.758-.791,1.9,1.9,0,0,0-1-.272,1.929,1.929,0,0,0-1.018.272,2.2,2.2,0,0,0-.771.791,4.1,4.1,0,0,0-.486,1.277,7.755,7.755,0,0,0-.169,1.731A7.837,7.837,0,0,0,2.156-7.49a4.142,4.142,0,0,0,.486,1.283,2.2,2.2,0,0,0,.771.791A1.929,1.929,0,0,0,4.431-5.144Z" transform="translate(22.564 14.328)"/>
      <path id="Path_350" data-name="Path 350" d="M4.431-4.133A3.1,3.1,0,0,1,3-4.464a3.165,3.165,0,0,1-1.128-.979,4.816,4.816,0,0,1-.739-1.6A7.985,7.985,0,0,1,.872-9.234a8.018,8.018,0,0,1,.266-2.191,4.78,4.78,0,0,1,.739-1.594A3.23,3.23,0,0,1,3-14a3.1,3.1,0,0,1,1.426-.331A3.084,3.084,0,0,1,5.844-14a3.23,3.23,0,0,1,1.128.979,5.048,5.048,0,0,1,.739,1.594,8.278,8.278,0,0,1,.266,2.191A8.243,8.243,0,0,1,7.71-7.043a5.087,5.087,0,0,1-.739,1.6,3.165,3.165,0,0,1-1.128.979A3.084,3.084,0,0,1,4.431-4.133Zm0-1.011a1.9,1.9,0,0,0,1-.272,2.227,2.227,0,0,0,.758-.791A4.494,4.494,0,0,0,6.68-7.49a8.242,8.242,0,0,0,.169-1.743,8.158,8.158,0,0,0-.169-1.731,4.449,4.449,0,0,0-.486-1.277,2.227,2.227,0,0,0-.758-.791,1.9,1.9,0,0,0-1-.272,1.929,1.929,0,0,0-1.018.272,2.2,2.2,0,0,0-.771.791,4.1,4.1,0,0,0-.486,1.277,7.755,7.755,0,0,0-.169,1.731A7.837,7.837,0,0,0,2.156-7.49a4.142,4.142,0,0,0,.486,1.283,2.2,2.2,0,0,0,.771.791A1.929,1.929,0,0,0,4.431-5.144Z" transform="translate(30.887 14.328)"/>
      <path id="Path_351" data-name="Path 351" d="M1.448-14.068H2.562v8.815H6.451v1.011h-5Z" transform="translate(39.035 14.25)"/>
      <path id="Path_352" data-name="Path 352" transform="translate(45.895 10.007)"/>
      <path id="Path_353" data-name="Path 353" d="M4.431-4.133A3.1,3.1,0,0,1,3-4.464a3.165,3.165,0,0,1-1.128-.979,4.816,4.816,0,0,1-.739-1.6A7.985,7.985,0,0,1,.872-9.234a8.018,8.018,0,0,1,.266-2.191,4.78,4.78,0,0,1,.739-1.594A3.23,3.23,0,0,1,3-14a3.1,3.1,0,0,1,1.426-.331A3.084,3.084,0,0,1,5.844-14a3.23,3.23,0,0,1,1.128.979,5.048,5.048,0,0,1,.739,1.594,8.278,8.278,0,0,1,.266,2.191A8.243,8.243,0,0,1,7.71-7.043a5.087,5.087,0,0,1-.739,1.6,3.165,3.165,0,0,1-1.128.979A3.084,3.084,0,0,1,4.431-4.133Zm0-1.011a1.9,1.9,0,0,0,1-.272,2.227,2.227,0,0,0,.758-.791A4.494,4.494,0,0,0,6.68-7.49a8.242,8.242,0,0,0,.169-1.743,8.158,8.158,0,0,0-.169-1.731,4.449,4.449,0,0,0-.486-1.277,2.227,2.227,0,0,0-.758-.791,1.9,1.9,0,0,0-1-.272,1.929,1.929,0,0,0-1.018.272,2.2,2.2,0,0,0-.771.791,4.1,4.1,0,0,0-.486,1.277,7.755,7.755,0,0,0-.169,1.731A7.837,7.837,0,0,0,2.156-7.49a4.142,4.142,0,0,0,.486,1.283,2.2,2.2,0,0,0,.771.791A1.929,1.929,0,0,0,4.431-5.144Z" transform="translate(48.276 14.328)"/>
      <path id="Path_354" data-name="Path 354" d="M1.448-14.068H6.4v1.024H2.562v3.176h2.8v1h-2.8v4.621H1.448Z" transform="translate(56.425 14.25)"/>
      <path id="Path_355" data-name="Path 355" transform="translate(63.207 10.007)"/>
      <path id="Path_356" data-name="Path 356" d="M1.559-14.068H2.674v9.826H1.559Z" transform="translate(65.381 14.25)"/>
      <path id="Path_357" data-name="Path 357" d="M1.448-14.068h1.3L5.823-8.054c.084.169.162.324.233.46s.143.279.207.408.136.272.2.415.143.292.227.46h.026v-7.758H7.735v9.826H6.717L3.425-10.575c-.1-.175-.181-.337-.253-.48s-.149-.279-.214-.421-.143-.285-.214-.441-.162-.324-.253-.519H2.465v8.192H1.448Z" transform="translate(68.707 14.25)"/>
      <path id="Path_358" data-name="Path 358" d="M1.448-14.068H6.4v1.024H2.562v3.176h2.8v1h-2.8v4.621H1.448Z" transform="translate(77.029 14.25)"/>
      <path id="Path_359" data-name="Path 359" d="M4.431-4.133A3.1,3.1,0,0,1,3-4.464a3.165,3.165,0,0,1-1.128-.979,4.816,4.816,0,0,1-.739-1.6A7.985,7.985,0,0,1,.872-9.234a8.018,8.018,0,0,1,.266-2.191,4.78,4.78,0,0,1,.739-1.594A3.23,3.23,0,0,1,3-14a3.1,3.1,0,0,1,1.426-.331A3.084,3.084,0,0,1,5.844-14a3.23,3.23,0,0,1,1.128.979,5.048,5.048,0,0,1,.739,1.594,8.278,8.278,0,0,1,.266,2.191A8.243,8.243,0,0,1,7.71-7.043a5.087,5.087,0,0,1-.739,1.6,3.165,3.165,0,0,1-1.128.979A3.084,3.084,0,0,1,4.431-4.133Zm0-1.011a1.9,1.9,0,0,0,1-.272,2.227,2.227,0,0,0,.758-.791A4.494,4.494,0,0,0,6.68-7.49a8.242,8.242,0,0,0,.169-1.743,8.158,8.158,0,0,0-.169-1.731,4.449,4.449,0,0,0-.486-1.277,2.227,2.227,0,0,0-.758-.791,1.9,1.9,0,0,0-1-.272,1.929,1.929,0,0,0-1.018.272,2.2,2.2,0,0,0-.771.791,4.1,4.1,0,0,0-.486,1.277,7.755,7.755,0,0,0-.169,1.731A7.837,7.837,0,0,0,2.156-7.49a4.142,4.142,0,0,0,.486,1.283,2.2,2.2,0,0,0,.771.791A1.929,1.929,0,0,0,4.431-5.144Z" transform="translate(83.548 14.328)"/>
      <path id="Path_360" data-name="Path 360" d="M1.448-14.068H4.235A4.42,4.42,0,0,1,5.5-13.9a2.5,2.5,0,0,1,.94.519,2.283,2.283,0,0,1,.583.869,3.565,3.565,0,0,1,.2,1.238,3.376,3.376,0,0,1-.149,1.044,2.64,2.64,0,0,1-.408.771,2.177,2.177,0,0,1-.59.531,2.546,2.546,0,0,1-.713.3l1.99,4.381H6.212L4.287-8.423H2.55v4.18h-1.1ZM4.163-9.382a3.378,3.378,0,0,0,.856-.1A1.493,1.493,0,0,0,5.641-9.8a1.359,1.359,0,0,0,.376-.583,2.636,2.636,0,0,0,.13-.881,2.359,2.359,0,0,0-.13-.823,1.358,1.358,0,0,0-.369-.557,1.555,1.555,0,0,0-.622-.3,3.432,3.432,0,0,0-.862-.1H2.55v3.662Z" transform="translate(91.696 14.25)"/>
      <path id="Path_361" data-name="Path 361" d="M1.448-14.068H2.841L5.324-5.8h.026l2.431-8.27H9.174v9.826H8.1v-8.043H8.072c-.032.156-.071.337-.123.538s-.11.415-.169.635-.13.447-.194.674-.13.441-.194.648L5.706-4.243H4.831L3.146-9.817c-.065-.194-.123-.4-.188-.622s-.13-.441-.188-.661-.117-.434-.169-.642-.1-.389-.136-.557H2.439v8.056H1.448Z" transform="translate(99.26 14.25)"/>
      <path id="Path_362" data-name="Path 362" d="M1.542-4.259H.492l2.884-9.865H4.407L7.291-4.259H6.176L5.392-7.085H2.326ZM4.7-9.555c-.084-.285-.162-.564-.233-.83s-.149-.525-.214-.771-.13-.486-.194-.719-.123-.473-.181-.706H3.849c-.065.24-.123.48-.181.713s-.13.473-.194.719-.136.493-.214.752-.156.531-.233.817L2.6-8.058H5.126Z" transform="translate(109.303 14.267)"/>
      <path id="Path_363" data-name="Path 363" d="M3.026-13.044H.492v-1.024h6.19v1.024H4.141v8.8H3.026Z" transform="translate(115.817 14.25)"/>
      <path id="Path_364" data-name="Path 364" d="M1.559-14.068H2.674v9.826H1.559Z" transform="translate(122.385 14.25)"/>
      <path id="Path_365" data-name="Path 365" d="M4.366-4.146A3.218,3.218,0,0,1,2.907-4.47a2.932,2.932,0,0,1-1.1-.966,4.786,4.786,0,0,1-.7-1.6A9.088,9.088,0,0,1,.872-9.26a8.533,8.533,0,0,1,.246-2.178,4.782,4.782,0,0,1,.713-1.588A3.045,3.045,0,0,1,2.94-14a3.1,3.1,0,0,1,1.439-.331,2.889,2.889,0,0,1,1.2.233,2.684,2.684,0,0,1,.875.642,3.368,3.368,0,0,1,.6.979,6.9,6.9,0,0,1,.363,1.251l-1.037.188a6.327,6.327,0,0,0-.285-.979,2.509,2.509,0,0,0-.408-.713,1.6,1.6,0,0,0-.57-.428,1.894,1.894,0,0,0-.765-.149,1.878,1.878,0,0,0-1.011.279,2.2,2.2,0,0,0-.745.791,4.292,4.292,0,0,0-.454,1.27,8.353,8.353,0,0,0-.156,1.692A8.982,8.982,0,0,0,2.143-7.5a4.121,4.121,0,0,0,.46,1.29,2.18,2.18,0,0,0,.752.8,1.919,1.919,0,0,0,1.024.272,1.948,1.948,0,0,0,.771-.143,1.586,1.586,0,0,0,.59-.434,2.911,2.911,0,0,0,.447-.745A6.435,6.435,0,0,0,6.5-7.536l1.018.175a6.609,6.609,0,0,1-.4,1.3,3.582,3.582,0,0,1-.642,1.018,2.7,2.7,0,0,1-.907.668A3.052,3.052,0,0,1,4.366-4.146Z" transform="translate(125.884 14.328)"/>
      <path id="Path_366" data-name="Path 366" d="M3.891-4.159a3.7,3.7,0,0,1-1.115-.162,3.047,3.047,0,0,1-.9-.467,3.329,3.329,0,0,1-.713-.732,4.752,4.752,0,0,1-.531-.966l.953-.434a4.239,4.239,0,0,0,.389.719,2.52,2.52,0,0,0,.512.564,2.129,2.129,0,0,0,.635.363,2.1,2.1,0,0,0,.771.13,2.453,2.453,0,0,0,.778-.11,1.7,1.7,0,0,0,.577-.318,1.4,1.4,0,0,0,.363-.5,1.616,1.616,0,0,0,.13-.655,1.6,1.6,0,0,0-.169-.745,2.318,2.318,0,0,0-.447-.564,3.611,3.611,0,0,0-.642-.441c-.246-.13-.5-.253-.758-.382-.207-.1-.421-.2-.635-.3a6.269,6.269,0,0,1-.616-.344,3.829,3.829,0,0,1-.551-.415,2.616,2.616,0,0,1-.447-.512,2.245,2.245,0,0,1-.3-.642,2.58,2.58,0,0,1-.11-.81,2.35,2.35,0,0,1,.2-.985,2.4,2.4,0,0,1,.564-.778,2.579,2.579,0,0,1,.849-.5,3.089,3.089,0,0,1,1.056-.181,3.091,3.091,0,0,1,1.044.169,2.875,2.875,0,0,1,.823.447,3.136,3.136,0,0,1,.622.655,4.361,4.361,0,0,1,.441.8l-.953.467a4.674,4.674,0,0,0-.318-.59,2.394,2.394,0,0,0-.415-.5,1.907,1.907,0,0,0-.551-.337,1.879,1.879,0,0,0-.706-.13,2.017,2.017,0,0,0-.642.1,1.482,1.482,0,0,0-.493.292,1.29,1.29,0,0,0-.311.454,1.378,1.378,0,0,0-.11.57,1.581,1.581,0,0,0,.162.745,1.954,1.954,0,0,0,.441.564,3.087,3.087,0,0,0,.635.447c.233.13.48.259.739.382.207.1.421.207.635.311s.421.22.622.344a5.92,5.92,0,0,1,.557.415,2.894,2.894,0,0,1,.454.519,2.593,2.593,0,0,1,.3.648,2.8,2.8,0,0,1,.11.8A2.5,2.5,0,0,1,6.62-5.74a2.385,2.385,0,0,1-.583.823,2.875,2.875,0,0,1-.927.557A3.584,3.584,0,0,1,3.891-4.159Z" transform="translate(133.735 14.328)"/>
      <path id="Path_367" data-name="Path 367" d="M1.838-.6H1.346V-1.977H2.584V-.726L1.987.759H1.482Z" transform="translate(140.778 10.603)"/>
      <path id="Path_368" data-name="Path 368" transform="translate(144.328 10.007)"/>
      <path id="Path_369" data-name="Path 369" d="M4.366-4.146A3.218,3.218,0,0,1,2.907-4.47a2.932,2.932,0,0,1-1.1-.966,4.786,4.786,0,0,1-.7-1.6A9.088,9.088,0,0,1,.872-9.26a8.533,8.533,0,0,1,.246-2.178,4.782,4.782,0,0,1,.713-1.588A3.045,3.045,0,0,1,2.94-14a3.1,3.1,0,0,1,1.439-.331,2.889,2.889,0,0,1,1.2.233,2.684,2.684,0,0,1,.875.642,3.368,3.368,0,0,1,.6.979,6.9,6.9,0,0,1,.363,1.251l-1.037.188a6.327,6.327,0,0,0-.285-.979,2.509,2.509,0,0,0-.408-.713,1.6,1.6,0,0,0-.57-.428,1.894,1.894,0,0,0-.765-.149,1.878,1.878,0,0,0-1.011.279,2.2,2.2,0,0,0-.745.791,4.292,4.292,0,0,0-.454,1.27,8.353,8.353,0,0,0-.156,1.692A8.982,8.982,0,0,0,2.143-7.5a4.121,4.121,0,0,0,.46,1.29,2.18,2.18,0,0,0,.752.8,1.919,1.919,0,0,0,1.024.272,1.948,1.948,0,0,0,.771-.143,1.586,1.586,0,0,0,.59-.434,2.911,2.911,0,0,0,.447-.745A6.435,6.435,0,0,0,6.5-7.536l1.018.175a6.609,6.609,0,0,1-.4,1.3,3.582,3.582,0,0,1-.642,1.018,2.7,2.7,0,0,1-.907.668A3.052,3.052,0,0,1,4.366-4.146Z" transform="translate(146.709 14.328)"/>
      <path id="Path_370" data-name="Path 370" d="M4.431-4.133A3.1,3.1,0,0,1,3-4.464a3.165,3.165,0,0,1-1.128-.979,4.816,4.816,0,0,1-.739-1.6A7.985,7.985,0,0,1,.872-9.234a8.018,8.018,0,0,1,.266-2.191,4.78,4.78,0,0,1,.739-1.594A3.23,3.23,0,0,1,3-14a3.1,3.1,0,0,1,1.426-.331A3.084,3.084,0,0,1,5.844-14a3.23,3.23,0,0,1,1.128.979,5.048,5.048,0,0,1,.739,1.594,8.278,8.278,0,0,1,.266,2.191A8.243,8.243,0,0,1,7.71-7.043a5.087,5.087,0,0,1-.739,1.6,3.165,3.165,0,0,1-1.128.979A3.084,3.084,0,0,1,4.431-4.133Zm0-1.011a1.9,1.9,0,0,0,1-.272,2.227,2.227,0,0,0,.758-.791A4.494,4.494,0,0,0,6.68-7.49a8.242,8.242,0,0,0,.169-1.743,8.158,8.158,0,0,0-.169-1.731,4.449,4.449,0,0,0-.486-1.277,2.227,2.227,0,0,0-.758-.791,1.9,1.9,0,0,0-1-.272,1.929,1.929,0,0,0-1.018.272,2.2,2.2,0,0,0-.771.791,4.1,4.1,0,0,0-.486,1.277,7.755,7.755,0,0,0-.169,1.731A7.837,7.837,0,0,0,2.156-7.49a4.142,4.142,0,0,0,.486,1.283,2.2,2.2,0,0,0,.771.791A1.929,1.929,0,0,0,4.431-5.144Z" transform="translate(154.487 14.328)"/>
      <path id="Path_371" data-name="Path 371" d="M1.448-14.068H2.841L5.324-5.8h.026l2.431-8.27H9.174v9.826H8.1v-8.043H8.072c-.032.156-.071.337-.123.538s-.11.415-.169.635-.13.447-.194.674-.13.441-.194.648L5.706-4.243H4.831L3.146-9.817c-.065-.194-.123-.4-.188-.622s-.13-.441-.188-.661-.117-.434-.169-.642-.1-.389-.136-.557H2.439v8.056H1.448Z" transform="translate(162.635 14.25)"/>
      <path id="Path_372" data-name="Path 372" d="M1.448-14.068H4.2a4.589,4.589,0,0,1,1.225.162,2.557,2.557,0,0,1,.959.5A2.315,2.315,0,0,1,7-12.539a3.436,3.436,0,0,1,.22,1.277,3.551,3.551,0,0,1-.24,1.374,2.315,2.315,0,0,1-.661.9,2.478,2.478,0,0,1-.985.493,4.568,4.568,0,0,1-1.212.149H2.55v4.1h-1.1ZM4.163-9.311a3.093,3.093,0,0,0,.856-.1,1.44,1.44,0,0,0,.622-.331,1.4,1.4,0,0,0,.376-.6,2.663,2.663,0,0,0,.13-.881,2.463,2.463,0,0,0-.13-.836,1.292,1.292,0,0,0-.376-.564,1.572,1.572,0,0,0-.622-.318,3.43,3.43,0,0,0-.869-.1H2.55v3.733Z" transform="translate(172.39 14.25)"/>
      <path id="Path_373" data-name="Path 373" d="M4.393-4.068a3.762,3.762,0,0,1-1.4-.24A2.4,2.4,0,0,1,2.046-5,2.879,2.879,0,0,1,1.5-6.07a5.171,5.171,0,0,1-.175-1.4v-6.6H2.442v6.455a5.5,5.5,0,0,0,.1,1.1,2.032,2.032,0,0,0,.337.8,1.484,1.484,0,0,0,.609.5,2.163,2.163,0,0,0,.92.169,2.183,2.183,0,0,0,.92-.169,1.46,1.46,0,0,0,.609-.493,2.228,2.228,0,0,0,.337-.8,5.315,5.315,0,0,0,.1-1.076v-6.481H7.445V-7.5A5.092,5.092,0,0,1,7.27-6.116a2.968,2.968,0,0,1-.544,1.089,2.449,2.449,0,0,1-.953.706A3.454,3.454,0,0,1,4.393-4.068Z" transform="translate(179.77 14.25)"/>
      <path id="Path_374" data-name="Path 374" d="M3.026-13.044H.492v-1.024h6.19v1.024H4.141v8.8H3.026Z" transform="translate(188.013 14.25)"/>
      <path id="Path_375" data-name="Path 375" d="M1.559-14.068H2.674v9.826H1.559Z" transform="translate(194.581 14.25)"/>
      <path id="Path_376" data-name="Path 376" d="M1.448-14.068h1.3L5.823-8.054c.084.169.162.324.233.46s.143.279.207.408.136.272.2.415.143.292.227.46h.026v-7.758H7.735v9.826H6.717L3.425-10.575c-.1-.175-.181-.337-.253-.48s-.149-.279-.214-.421-.143-.285-.214-.441-.162-.324-.253-.519H2.465v8.192H1.448Z" transform="translate(197.907 14.25)"/>
      <path id="Path_377" data-name="Path 377" d="M4.288-4.146a3.1,3.1,0,0,1-1.452-.337,2.924,2.924,0,0,1-1.076-1A4.858,4.858,0,0,1,1.1-7.089,9.156,9.156,0,0,1,.872-9.26a8.581,8.581,0,0,1,.24-2.132A4.859,4.859,0,0,1,1.8-12.987a3.11,3.11,0,0,1,1.1-1,3.145,3.145,0,0,1,1.478-.344,2.93,2.93,0,0,1,1.154.214A2.5,2.5,0,0,1,6.4-13.5a3.435,3.435,0,0,1,.609.979,7.446,7.446,0,0,1,.4,1.3l-1.011.2a4.012,4.012,0,0,0-.726-1.718A1.633,1.633,0,0,0,4.353-13.3a1.915,1.915,0,0,0-.979.253,2.144,2.144,0,0,0-.745.758,4.074,4.074,0,0,0-.473,1.257,7.858,7.858,0,0,0-.169,1.75,6,6,0,0,0,.635,3.111A1.986,1.986,0,0,0,4.4-5.144a1.784,1.784,0,0,0,1.523-.732A3.845,3.845,0,0,0,6.5-8.067H4.632V-9.02H7.5v4.7H6.608V-5.663H6.6a2.55,2.55,0,0,1-.324.551,2.467,2.467,0,0,1-.486.486,2.458,2.458,0,0,1-.661.344A2.459,2.459,0,0,1,4.288-4.146Z" transform="translate(206.403 14.328)"/>
      <path id="Path_378" data-name="Path 378" d="M1.838-.6H1.346V-1.977H2.584V-.726L1.987.759H1.482Z" transform="translate(214.368 10.603)"/>
      <path id="Path_379" data-name="Path 379" transform="translate(217.917 10.007)"/>
      <path id="Path_380" data-name="Path 380" d="M1.542-4.259H.492l2.884-9.865H4.407L7.291-4.259H6.176L5.392-7.085H2.326ZM4.7-9.555c-.084-.285-.162-.564-.233-.83s-.149-.525-.214-.771-.13-.486-.194-.719-.123-.473-.181-.706H3.849c-.065.24-.123.48-.181.713s-.13.473-.194.719-.136.493-.214.752-.156.531-.233.817L2.6-8.058H5.126Z" transform="translate(220.414 14.267)"/>
      <path id="Path_381" data-name="Path 381" d="M1.448-14.068h1.3L5.823-8.054c.084.169.162.324.233.46s.143.279.207.408.136.272.2.415.143.292.227.46h.026v-7.758H7.735v9.826H6.717L3.425-10.575c-.1-.175-.181-.337-.253-.48s-.149-.279-.214-.421-.143-.285-.214-.441-.162-.324-.253-.519H2.465v8.192H1.448Z" transform="translate(227.611 14.25)"/>
      <path id="Path_382" data-name="Path 382" d="M1.448-14.068H3.606a5.27,5.27,0,0,1,1.8.285,3.156,3.156,0,0,1,1.309.875,3.908,3.908,0,0,1,.8,1.523A7.971,7.971,0,0,1,7.78-9.169,7.986,7.986,0,0,1,7.5-6.939a3.992,3.992,0,0,1-.8,1.53,3.149,3.149,0,0,1-1.309.881,5.067,5.067,0,0,1-1.782.285H1.448ZM3.755-5.241a3.244,3.244,0,0,0,1.283-.227,2.137,2.137,0,0,0,.907-.7,3.248,3.248,0,0,0,.538-1.219,7.82,7.82,0,0,0,.181-1.782,7.583,7.583,0,0,0-.181-1.743,3.23,3.23,0,0,0-.538-1.206,2.244,2.244,0,0,0-.907-.7,3.456,3.456,0,0,0-1.3-.227H2.562v7.8Z" transform="translate(235.933 14.25)"/>
      <path id="Path_383" data-name="Path 383" transform="translate(244.323 10.007)"/>
      <path id="Path_384" data-name="Path 384" d="M1.448-14.068H6.464v1.024h-3.9v3.1H5.414v1.011H2.562v3.675H6.691v1.011H1.448Z" transform="translate(246.53 14.25)"/>
      <path id="Path_385" data-name="Path 385" d="M1.448-14.068h1.3L5.823-8.054c.084.169.162.324.233.46s.143.279.207.408.136.272.2.415.143.292.227.46h.026v-7.758H7.735v9.826H6.717L3.425-10.575c-.1-.175-.181-.337-.253-.48s-.149-.279-.214-.421-.143-.285-.214-.441-.162-.324-.253-.519H2.465v8.192H1.448Z" transform="translate(253.271 14.25)"/>
      <path id="Path_386" data-name="Path 386" d="M4.288-4.146a3.1,3.1,0,0,1-1.452-.337,2.924,2.924,0,0,1-1.076-1A4.858,4.858,0,0,1,1.1-7.089,9.156,9.156,0,0,1,.872-9.26a8.581,8.581,0,0,1,.24-2.132A4.859,4.859,0,0,1,1.8-12.987a3.11,3.11,0,0,1,1.1-1,3.145,3.145,0,0,1,1.478-.344,2.93,2.93,0,0,1,1.154.214A2.5,2.5,0,0,1,6.4-13.5a3.435,3.435,0,0,1,.609.979,7.446,7.446,0,0,1,.4,1.3l-1.011.2a4.012,4.012,0,0,0-.726-1.718A1.633,1.633,0,0,0,4.353-13.3a1.915,1.915,0,0,0-.979.253,2.144,2.144,0,0,0-.745.758,4.074,4.074,0,0,0-.473,1.257,7.858,7.858,0,0,0-.169,1.75,6,6,0,0,0,.635,3.111A1.986,1.986,0,0,0,4.4-5.144a1.784,1.784,0,0,0,1.523-.732A3.845,3.845,0,0,0,6.5-8.067H4.632V-9.02H7.5v4.7H6.608V-5.663H6.6a2.55,2.55,0,0,1-.324.551,2.467,2.467,0,0,1-.486.486,2.458,2.458,0,0,1-.661.344A2.459,2.459,0,0,1,4.288-4.146Z" transform="translate(261.767 14.328)"/>
      <path id="Path_387" data-name="Path 387" d="M1.559-14.068H2.674v9.826H1.559Z" transform="translate(269.668 14.25)"/>
      <path id="Path_388" data-name="Path 388" d="M1.448-14.068h1.3L5.823-8.054c.084.169.162.324.233.46s.143.279.207.408.136.272.2.415.143.292.227.46h.026v-7.758H7.735v9.826H6.717L3.425-10.575c-.1-.175-.181-.337-.253-.48s-.149-.279-.214-.421-.143-.285-.214-.441-.162-.324-.253-.519H2.465v8.192H1.448Z" transform="translate(272.994 14.25)"/>
      <path id="Path_389" data-name="Path 389" d="M1.448-14.068H6.464v1.024h-3.9v3.1H5.414v1.011H2.562v3.675H6.691v1.011H1.448Z" transform="translate(281.316 14.25)"/>
      <path id="Path_390" data-name="Path 390" d="M1.448-14.068H6.464v1.024h-3.9v3.1H5.414v1.011H2.562v3.675H6.691v1.011H1.448Z" transform="translate(288.057 14.25)"/>
      <path id="Path_391" data-name="Path 391" d="M1.448-14.068H4.235A4.42,4.42,0,0,1,5.5-13.9a2.5,2.5,0,0,1,.94.519,2.283,2.283,0,0,1,.583.869,3.565,3.565,0,0,1,.2,1.238,3.376,3.376,0,0,1-.149,1.044,2.64,2.64,0,0,1-.408.771,2.177,2.177,0,0,1-.59.531,2.546,2.546,0,0,1-.713.3l1.99,4.381H6.212L4.287-8.423H2.55v4.18h-1.1ZM4.163-9.382a3.378,3.378,0,0,0,.856-.1A1.493,1.493,0,0,0,5.641-9.8a1.359,1.359,0,0,0,.376-.583,2.636,2.636,0,0,0,.13-.881,2.359,2.359,0,0,0-.13-.823,1.358,1.358,0,0,0-.369-.557,1.555,1.555,0,0,0-.622-.3,3.432,3.432,0,0,0-.862-.1H2.55v3.662Z" transform="translate(294.797 14.25)"/>
      <path id="Path_392" data-name="Path 392" d="M1.559-14.068H2.674v9.826H1.559Z" transform="translate(302.328 14.25)"/>
      <path id="Path_393" data-name="Path 393" d="M1.448-14.068h1.3L5.823-8.054c.084.169.162.324.233.46s.143.279.207.408.136.272.2.415.143.292.227.46h.026v-7.758H7.735v9.826H6.717L3.425-10.575c-.1-.175-.181-.337-.253-.48s-.149-.279-.214-.421-.143-.285-.214-.441-.162-.324-.253-.519H2.465v8.192H1.448Z" transform="translate(305.654 14.25)"/>
      <path id="Path_394" data-name="Path 394" d="M4.288-4.146a3.1,3.1,0,0,1-1.452-.337,2.924,2.924,0,0,1-1.076-1A4.858,4.858,0,0,1,1.1-7.089,9.156,9.156,0,0,1,.872-9.26a8.581,8.581,0,0,1,.24-2.132A4.859,4.859,0,0,1,1.8-12.987a3.11,3.11,0,0,1,1.1-1,3.145,3.145,0,0,1,1.478-.344,2.93,2.93,0,0,1,1.154.214A2.5,2.5,0,0,1,6.4-13.5a3.435,3.435,0,0,1,.609.979,7.446,7.446,0,0,1,.4,1.3l-1.011.2a4.012,4.012,0,0,0-.726-1.718A1.633,1.633,0,0,0,4.353-13.3a1.915,1.915,0,0,0-.979.253,2.144,2.144,0,0,0-.745.758,4.074,4.074,0,0,0-.473,1.257,7.858,7.858,0,0,0-.169,1.75,6,6,0,0,0,.635,3.111A1.986,1.986,0,0,0,4.4-5.144a1.784,1.784,0,0,0,1.523-.732A3.845,3.845,0,0,0,6.5-8.067H4.632V-9.02H7.5v4.7H6.608V-5.663H6.6a2.55,2.55,0,0,1-.324.551,2.467,2.467,0,0,1-.486.486,2.458,2.458,0,0,1-.661.344A2.459,2.459,0,0,1,4.288-4.146Z" transform="translate(314.149 14.328)"/>
    </g>
  </g>
  <g id="Group_207" data-name="Group 207" transform="translate(50.985 47.718)">
    <g id="Group_206" data-name="Group 206" transform="translate(0 0)">
      <path id="Path_395" data-name="Path 395" d="M1.559-14.068H2.674v9.826H1.559Z" transform="translate(-1.559 14.068)"/>
      <path id="Path_396" data-name="Path 396" d="M1.216-10.1H2.292v.966a3.472,3.472,0,0,1,.415-.389,3.568,3.568,0,0,1,.525-.363,3.023,3.023,0,0,1,.609-.259,2.282,2.282,0,0,1,.668-.1,1.623,1.623,0,0,1,1.283.5,2.136,2.136,0,0,1,.441,1.452v5.2H5.169V-8.067a1.561,1.561,0,0,0-.227-.927.906.906,0,0,0-.765-.3,1.58,1.58,0,0,0-.512.091,2.941,2.941,0,0,0-.506.227,3.5,3.5,0,0,0-.467.324c-.149.123-.285.246-.4.363v5.2H1.216Z" transform="translate(1.837 12.915)"/>
      <path id="Path_397" data-name="Path 397" d="M3.14-4.139a2.227,2.227,0,0,1-.953-.207,1.879,1.879,0,0,1-.752-.648,3.261,3.261,0,0,1-.5-1.121A6.633,6.633,0,0,1,.761-7.749a6.1,6.1,0,0,1,.188-1.64,3.4,3.4,0,0,1,.512-1.134,2.068,2.068,0,0,1,.771-.661,2.188,2.188,0,0,1,.959-.214,2.083,2.083,0,0,1,1.069.272,2.945,2.945,0,0,1,.817.713v-3.656H6.134v8.1q0,.642.039,1.05a2.8,2.8,0,0,0,.136.674h-1.1a.741.741,0,0,1-.058-.2c-.013-.078-.026-.162-.039-.246s-.019-.169-.026-.253-.006-.149-.006-.214a5.237,5.237,0,0,1-.369.389,2.658,2.658,0,0,1-.441.324,2.191,2.191,0,0,1-.519.22A2.268,2.268,0,0,1,3.14-4.139Zm.292-.888A1.363,1.363,0,0,0,3.885-5.1a2.044,2.044,0,0,0,.434-.207,2.524,2.524,0,0,0,.4-.3c.123-.117.24-.233.356-.363V-9.5a3.74,3.74,0,0,0-.791-.706,1.588,1.588,0,0,0-.869-.266,1.353,1.353,0,0,0-.648.162,1.343,1.343,0,0,0-.5.493,2.622,2.622,0,0,0-.324.856,5.773,5.773,0,0,0-.11,1.238,5.487,5.487,0,0,0,.117,1.212,2.619,2.619,0,0,0,.324.836,1.406,1.406,0,0,0,.506.493A1.349,1.349,0,0,0,3.431-5.027Z" transform="translate(8.637 14.068)"/>
      <path id="Path_398" data-name="Path 398" d="M1.308-13.688H2.4v1.16H1.308Zm0,2.554H2.384v7.006H1.308Z" transform="translate(15.213 13.954)"/>
      <path id="Path_399" data-name="Path 399" d="M2.359-3a1.6,1.6,0,0,1-1.231-.46,1.76,1.76,0,0,1-.441-1.29,2.065,2.065,0,0,1,.227-.972,2.428,2.428,0,0,1,.7-.823,4.967,4.967,0,0,1,1.219-.668,10.936,10.936,0,0,1,1.769-.5v-.421a1.289,1.289,0,0,0-.259-.881A1.034,1.034,0,0,0,3.551-9.3a2.343,2.343,0,0,0-.609.078,2.857,2.857,0,0,0-.544.2,2.64,2.64,0,0,0-.486.3,3.939,3.939,0,0,0-.428.363l-.6-.648A4.753,4.753,0,0,1,2.126-9.9a3.42,3.42,0,0,1,1.53-.344,1.93,1.93,0,0,1,1.51.551,2.278,2.278,0,0,1,.486,1.562v3.318c0,.428.006.778.032,1.05a2.8,2.8,0,0,0,.136.674H4.744c-.039-.136-.078-.272-.1-.4a2.639,2.639,0,0,1-.039-.5,3.157,3.157,0,0,1-1,.732A3.011,3.011,0,0,1,2.359-3Zm.356-.875a2.2,2.2,0,0,0,1.031-.253A3.031,3.031,0,0,0,4.6-4.788V-6.94a8.1,8.1,0,0,0-1.361.4,3.845,3.845,0,0,0-.888.48,1.612,1.612,0,0,0-.473.557,1.329,1.329,0,0,0-.143.6A1.015,1.015,0,0,0,2-4.12.971.971,0,0,0,2.715-3.874Z" transform="translate(18.323 12.915)"/>
      <path id="Path_400" data-name="Path 400" d="M1.216-10.1H2.292v.966a3.472,3.472,0,0,1,.415-.389,3.568,3.568,0,0,1,.525-.363,3.023,3.023,0,0,1,.609-.259,2.282,2.282,0,0,1,.668-.1,1.623,1.623,0,0,1,1.283.5,2.136,2.136,0,0,1,.441,1.452v5.2H5.169V-8.067a1.561,1.561,0,0,0-.227-.927.906.906,0,0,0-.765-.3,1.58,1.58,0,0,0-.512.091,2.941,2.941,0,0,0-.506.227,3.5,3.5,0,0,0-.467.324c-.149.123-.285.246-.4.363v5.2H1.216Z" transform="translate(24.418 12.915)"/>
      <path id="Path_401" data-name="Path 401" d="M2.359-3a1.6,1.6,0,0,1-1.231-.46,1.76,1.76,0,0,1-.441-1.29,2.065,2.065,0,0,1,.227-.972,2.428,2.428,0,0,1,.7-.823,4.967,4.967,0,0,1,1.219-.668,10.936,10.936,0,0,1,1.769-.5v-.421a1.289,1.289,0,0,0-.259-.881A1.034,1.034,0,0,0,3.551-9.3a2.343,2.343,0,0,0-.609.078,2.857,2.857,0,0,0-.544.2,2.64,2.64,0,0,0-.486.3,3.939,3.939,0,0,0-.428.363l-.6-.648A4.753,4.753,0,0,1,2.126-9.9a3.42,3.42,0,0,1,1.53-.344,1.93,1.93,0,0,1,1.51.551,2.278,2.278,0,0,1,.486,1.562v3.318c0,.428.006.778.032,1.05a2.8,2.8,0,0,0,.136.674H4.744c-.039-.136-.078-.272-.1-.4a2.639,2.639,0,0,1-.039-.5,3.157,3.157,0,0,1-1,.732A3.011,3.011,0,0,1,2.359-3Zm.356-.875a2.2,2.2,0,0,0,1.031-.253A3.031,3.031,0,0,0,4.6-4.788V-6.94a8.1,8.1,0,0,0-1.361.4,3.845,3.845,0,0,0-.888.48,1.612,1.612,0,0,0-.473.557,1.329,1.329,0,0,0-.143.6A1.015,1.015,0,0,0,2-4.12.971.971,0,0,0,2.715-3.874Z" transform="translate(31.241 12.915)"/>
      <path id="Path_402" data-name="Path 402" transform="translate(37.702 9.826)"/>
      <path id="Path_403" data-name="Path 403" d="M4.393-4.068a3.762,3.762,0,0,1-1.4-.24A2.4,2.4,0,0,1,2.046-5,2.879,2.879,0,0,1,1.5-6.07a5.171,5.171,0,0,1-.175-1.4v-6.6H2.442v6.455a5.5,5.5,0,0,0,.1,1.1,2.032,2.032,0,0,0,.337.8,1.484,1.484,0,0,0,.609.5,2.163,2.163,0,0,0,.92.169,2.183,2.183,0,0,0,.92-.169,1.46,1.46,0,0,0,.609-.493,2.228,2.228,0,0,0,.337-.8,5.315,5.315,0,0,0,.1-1.076v-6.481H7.445V-7.5A5.092,5.092,0,0,1,7.27-6.116a2.968,2.968,0,0,1-.544,1.089,2.449,2.449,0,0,1-.953.706A3.454,3.454,0,0,1,4.393-4.068Z" transform="translate(39.946 14.068)"/>
      <path id="Path_404" data-name="Path 404" d="M1.216-10.1H2.292v.966a3.472,3.472,0,0,1,.415-.389,3.568,3.568,0,0,1,.525-.363,3.023,3.023,0,0,1,.609-.259,2.282,2.282,0,0,1,.668-.1,1.623,1.623,0,0,1,1.283.5,2.136,2.136,0,0,1,.441,1.452v5.2H5.169V-8.067a1.561,1.561,0,0,0-.227-.927.906.906,0,0,0-.765-.3,1.58,1.58,0,0,0-.512.091,2.941,2.941,0,0,0-.506.227,3.5,3.5,0,0,0-.467.324c-.149.123-.285.246-.4.363v5.2H1.216Z" transform="translate(47.972 12.915)"/>
      <path id="Path_405" data-name="Path 405" d="M1.308-13.688H2.4v1.16H1.308Zm0,2.554H2.384v7.006H1.308Z" transform="translate(54.607 13.954)"/>
      <path id="Path_406" data-name="Path 406" d="M.343-10.032H1.419L2.56-6.052c.039.156.071.3.11.441s.078.285.117.434.084.3.13.467.1.35.149.544h.026c.039-.194.084-.369.123-.538s.084-.318.123-.467.078-.292.117-.434.084-.292.13-.447l1.128-3.98h1L3.6-3H2.469Z" transform="translate(57.821 12.851)"/>
      <path id="Path_407" data-name="Path 407" d="M3.439-2.941a2.53,2.53,0,0,1-1.069-.227,2.268,2.268,0,0,1-.856-.681A3.389,3.389,0,0,1,.95-5,5.391,5.391,0,0,1,.742-6.6,5.125,5.125,0,0,1,.969-8.229a3.364,3.364,0,0,1,.6-1.134,2.335,2.335,0,0,1,.862-.661,2.522,2.522,0,0,1,1.018-.22,2.288,2.288,0,0,1,1.044.233,2.256,2.256,0,0,1,.784.687,3.447,3.447,0,0,1,.493,1.134,6.268,6.268,0,0,1,.175,1.556v.266H1.805a3.442,3.442,0,0,0,.473,1.886,1.4,1.4,0,0,0,1.212.635,1.613,1.613,0,0,0,.551-.084,1.427,1.427,0,0,0,.434-.24,1.868,1.868,0,0,0,.363-.382,5.072,5.072,0,0,0,.311-.512l.739.467a3.529,3.529,0,0,1-.434.687,2.66,2.66,0,0,1-.557.525,2.509,2.509,0,0,1-.674.331A2.61,2.61,0,0,1,3.439-2.941ZM4.923-7.179a4.989,4.989,0,0,0-.13-.869,2.335,2.335,0,0,0-.279-.681,1.338,1.338,0,0,0-.454-.441,1.235,1.235,0,0,0-.622-.162,1.357,1.357,0,0,0-.57.13,1.394,1.394,0,0,0-.493.389,2.238,2.238,0,0,0-.363.668,3.348,3.348,0,0,0-.194.966Z" transform="translate(63.553 12.915)"/>
      <path id="Path_408" data-name="Path 408" d="M1.216-10.1H2.292v1.206h.026A2.87,2.87,0,0,1,2.674-9.4a2.656,2.656,0,0,1,.493-.434,2.584,2.584,0,0,1,.616-.3,2.316,2.316,0,0,1,.752-.117h.149L4.612-9.234a.524.524,0,0,1-.1-.006H4.417c-.026,0-.045-.006-.058-.006a1.982,1.982,0,0,0-.655.11,2.257,2.257,0,0,0-.57.292,2.606,2.606,0,0,0-.473.454,3.356,3.356,0,0,0-.369.577V-3.09H1.216Z" transform="translate(69.652 12.915)"/>
      <path id="Path_409" data-name="Path 409" d="M2.992-2.941a2.947,2.947,0,0,1-1.556-.389A3.089,3.089,0,0,1,.38-4.379l.732-.531a2.387,2.387,0,0,0,.843.81,2.054,2.054,0,0,0,1.05.279,1.717,1.717,0,0,0,1.037-.272.9.9,0,0,0,.363-.758A.93.93,0,0,0,4.25-5.4a1.577,1.577,0,0,0-.415-.382,3.842,3.842,0,0,0-.59-.285c-.22-.084-.441-.169-.668-.259A6.218,6.218,0,0,1,1.9-6.616,2.291,2.291,0,0,1,1.32-7a1.7,1.7,0,0,1-.415-.557,1.861,1.861,0,0,1-.156-.8,1.78,1.78,0,0,1,.162-.765,1.8,1.8,0,0,1,.46-.6,2.14,2.14,0,0,1,.7-.382,2.813,2.813,0,0,1,.894-.143A2.613,2.613,0,0,1,4.321-9.9a2.951,2.951,0,0,1,.959.92l-.719.557a2.424,2.424,0,0,0-.668-.668,1.666,1.666,0,0,0-.94-.266,1.227,1.227,0,0,0-.881.272.873.873,0,0,0-.285.674.9.9,0,0,0,.156.544,1.361,1.361,0,0,0,.408.382,3.044,3.044,0,0,0,.583.272c.214.078.434.162.661.246s.447.181.668.285a2.4,2.4,0,0,1,.577.4,1.819,1.819,0,0,1,.415.564,1.9,1.9,0,0,1,.156.81,1.818,1.818,0,0,1-.188.83,1.83,1.83,0,0,1-.519.616,2.432,2.432,0,0,1-.765.389A3.212,3.212,0,0,1,2.992-2.941Z" transform="translate(74.486 12.915)"/>
      <path id="Path_410" data-name="Path 410" d="M1.308-13.688H2.4v1.16H1.308Zm0,2.554H2.384v7.006H1.308Z" transform="translate(79.981 13.954)"/>
      <path id="Path_411" data-name="Path 411" d="M3.13-4.025a3.594,3.594,0,0,1-.817-.084,1.222,1.222,0,0,1-.538-.285,1.117,1.117,0,0,1-.3-.519,2.649,2.649,0,0,1-.091-.771v-4.537H.343v-.888H1.38v-2.5H2.437v2.5H3.979v.888H2.437v4.3a2.416,2.416,0,0,0,.039.467.715.715,0,0,0,.149.324.567.567,0,0,0,.285.188,1.5,1.5,0,0,0,.46.058,1.87,1.87,0,0,0,.324-.026,1.2,1.2,0,0,0,.272-.065v.862a1.57,1.57,0,0,1-.156.032c-.065.013-.136.019-.214.032l-.233.019C3.286-4.031,3.208-4.025,3.13-4.025Z" transform="translate(83.195 13.929)"/>
      <path id="Path_412" data-name="Path 412" d="M1.2-.355A3.346,3.346,0,0,1,.552-.413a4.177,4.177,0,0,1-.441-.1l.214-.849c.084.019.2.039.356.065a2.976,2.976,0,0,0,.493.039,1.162,1.162,0,0,0,.389-.065.813.813,0,0,0,.292-.2,1.363,1.363,0,0,0,.22-.344c.065-.136.123-.3.188-.48l.2-.609L.273-10.032h1.1L2.438-6.37c.052.194.1.382.156.551s.1.35.143.519.091.344.136.512.084.35.136.531h.026c.052-.194.1-.376.143-.557s.091-.35.143-.531.1-.35.149-.531.1-.369.162-.57l1.037-3.584H5.685L3.274-2.254a6.615,6.615,0,0,1-.331.836,2.26,2.26,0,0,1-.408.59,1.523,1.523,0,0,1-.557.356A2.339,2.339,0,0,1,1.2-.355Z" transform="translate(87.582 12.851)"/>
    </g>
  </g>
</svg>
