<svg id="Layer_1" data-name="Layer 1" xmlns="http://www.w3.org/2000/svg" viewBox="0 0 504.77 187.78"><defs><style>.cls-1{fill:#fff;}</style></defs><path class="cls-1" d="M80.25,29.62a26.47,26.47,0,0,1-9.46,20.65q-9.45,8.35-23.41,8.35c-5.59,0-11.07-.23-16.47-.7V82.67c0,3.25.41,5.54,1.22,6.84a8.24,8.24,0,0,0,4.27,3.11,39.27,39.27,0,0,0,8.91,1.85q1.11.15,1.11,1.89c0,1.31-.37,2-1.11,2-3.13,0-6.83-.14-11.12-.42q-6.15-.42-10.41-.42T13.3,97.9q-6.49.42-11.18.42c-.75,0-1.12-.65-1.12-2,0-1.16.37-1.79,1.12-1.89,5.63-.65,9.47-1.7,11.49-3.14s3-4.34,3-8.68V16.84c0-3.26-.4-5.56-1.22-6.88a8.19,8.19,0,0,0-4.3-3.15A40.72,40.72,0,0,0,2.12,5C1.37,5,1,4.31,1,3s.37-1.92,1.12-1.92q4.68,0,11.18.42c4.14.28,7.64.42,10.47.42s6.31-.14,10.4-.42q6.44-.42,11.1-.42,17.17,0,26.08,7.27T80.25,29.62Zm-15.45,0q0-11.21-5.48-17.52T44.75,5.79a32.54,32.54,0,0,0-8.42.84,7,7,0,0,0-4.2,2.74q-1.22,1.89-1.22,7.5V49c0,2,.63,3.35,1.89,4s4,1,8.17,1q11.4,0,17.61-6.52T64.8,29.62Z" transform="translate(-1 -1.11)"/><path class="cls-1" d="M141.2,80.06a153.79,153.79,0,0,0-3.62,18q-18.74-.6-26.66-.59t-26.31.59c-.53,0-.79-.46-.79-1.37s.26-1.26.79-1.33c3.94-.45,6.62-1.19,8-2.2s2.13-3,2.13-6.07V41a9.84,9.84,0,0,0-.85-4.82,5.78,5.78,0,0,0-3-2.2,28.65,28.65,0,0,0-6.31-1.3c-.53,0-.79-.45-.79-1.34s.26-1.35.79-1.35q3.27,0,7.82.29c2.91.2,5.35.3,7.34.3s4.42-.1,7.29-.3,5.59-.29,7.78-.29q.78,0,.78,1.35c0,.89-.26,1.34-.78,1.34a28.35,28.35,0,0,0-6.26,1.3,5.63,5.63,0,0,0-3,2.18,10.08,10.08,0,0,0-.83,4.84V88.57q0,5.78,5.68,5.78h9.68a16.18,16.18,0,0,0,10.18-3.21q4.15-3.19,8.21-12,.19-.39.93-.39a2,2,0,0,1,1.2.39A1.1,1.1,0,0,1,141.2,80.06Z" transform="translate(-1 -1.11)"/><path class="cls-1" d="M213.21,96.7c0,.91-.26,1.37-.78,1.37q-3.37,0-7.64-.3-3.67-.28-6.27-.29-3,0-7.39.29-4.65.3-7.93.3-.78,0-.78-1.35c0-.89.2-1.35.59-1.35a16.58,16.58,0,0,0,6.26-1.15,3.15,3.15,0,0,0,1.91-3,14.36,14.36,0,0,0-1-4.08l-5.57-16.39H164.54l-5.6,15.16a15.7,15.7,0,0,0-1.07,4.72q0,4.34,7.92,4.72c.39,0,.59.46.59,1.35s-.26,1.35-.78,1.35q-2.94,0-6.51-.3-3.37-.28-6-.29c-1.4,0-3.16.1-5.28.29s-4.1.3-5.67.3c-.49,0-.73-.41-.73-1.23s.37-1.4,1.12-1.47A12.12,12.12,0,0,0,149,93.12q2.37-1.84,4.91-7.58l22.9-56.2a1.28,1.28,0,0,1,1.37-.79c.78,0,1.27.25,1.46.74l20.21,56.25a15,15,0,0,0,4.62,7,15.55,15.55,0,0,0,7.8,2.83C212.88,95.44,213.21,95.88,213.21,96.7ZM183.55,67.64,175,42.71l-9.26,24.93Z" transform="translate(-1 -1.11)"/><path class="cls-1" d="M272.3,80q-1.76,7.82-3.42,16.63a68.62,68.62,0,0,0-10.13,1.32,86.28,86.28,0,0,1-13.89,1.71,41.59,41.59,0,0,1-19.57-4.4,31.84,31.84,0,0,1-13.11-12.6,36,36,0,0,1-4.69-18.22,35,35,0,0,1,5-18.22,34.54,34.54,0,0,1,13.67-13,41,41,0,0,1,19.62-4.65,104,104,0,0,1,12.33,1,76.71,76.71,0,0,0,8.75.78q.65,6.86,2.25,16.64,0,.78-1.56.78a1,1,0,0,1-1.17-.78,19.61,19.61,0,0,0-7.59-11,22,22,0,0,0-13.4-4.31q-11.49,0-19.3,9.49t-7.8,23.24q0,13.35,7.73,22.72t18.88,9.37q17.46,0,24.75-16.53a1.31,1.31,0,0,1,1.32-.79C271.85,79.18,272.3,79.45,272.3,80Z" transform="translate(-1 -1.11)"/><path class="cls-1" d="M332.57,81.92a142.49,142.49,0,0,0-6.46,16.15q-18.44-.6-26.27-.59t-26.22.59c-.52,0-.78-.46-.78-1.37s.26-1.26.78-1.33a27.94,27.94,0,0,0,6.22-1.29,5.8,5.8,0,0,0,3-2.18,9.65,9.65,0,0,0,.86-4.8V41a10.14,10.14,0,0,0-.81-4.77,5.57,5.57,0,0,0-3-2.23,27.77,27.77,0,0,0-6.31-1.32c-.52,0-.78-.45-.78-1.34s.26-1.35.78-1.35q12.33.59,25.24.59t25.3-.59a112.87,112.87,0,0,0,3.27,15c0,.65-.57,1-1.71,1a1,1,0,0,1-1-.69q-3.62-11.53-15.45-11.54h-9.89q-5.67,0-5.67,5.87V61.38H306q4.92,0,6.66-2.25c1.16-1.5,2-4.16,2.44-8,0-.52.44-.78,1.34-.78s1.35.26,1.35.78q0,2.45-.3,6.17-.28,3.57-.29,5.82T317.5,69q.3,3.81.3,6.26,0,.78-1.35.78c-.9,0-1.34-.26-1.34-.78q-.75-6-2.59-8.37T306,64.51H293.68V88.58c0,3.84,1.89,5.77,5.67,5.77H310a20.77,20.77,0,0,0,11.54-3.79A23.3,23.3,0,0,0,330,81.09a.81.81,0,0,1,.83-.44A2.09,2.09,0,0,1,332,81,1.06,1.06,0,0,1,332.57,81.92Z" transform="translate(-1 -1.11)"/><path class="cls-1" d="M377.33,78.4q0,9.73-5.78,15.48t-15.62,5.75a43,43,0,0,1-10.44-1.56,36.91,36.91,0,0,0-9.06-1.47q-.29-8.32-1.17-16.63c0-.52.49-.79,1.47-.79A1.18,1.18,0,0,1,338,80q2.64,9.09,6.76,12.81T356.3,96.5q5.93,0,9.17-3.42t3.25-9.59a11.26,11.26,0,0,0-2.84-7.36Q363,72.72,353.8,67.34,343.18,61.24,339.91,57a15.06,15.06,0,0,1-3.28-9.44,17.73,17.73,0,0,1,5.9-13.47q5.91-5.51,15-5.51a39.15,39.15,0,0,1,7.89.93,37.13,37.13,0,0,0,7.2.83q.59,8.61,1.57,15.17c0,.52-.43.78-1.27.78s-1.42-.26-1.52-.78q-1.62-7.33-4.9-10.57t-9.08-3.23a11.86,11.86,0,0,0-8.75,3.23,11.76,11.76,0,0,0-3.24,8.71,10,10,0,0,0,2.72,6.63q2.72,3.15,11.8,8.44Q370.65,64.94,374,69.16A14.49,14.49,0,0,1,377.33,78.4Z" transform="translate(-1 -1.11)"/><path class="cls-1" d="M429.36,28.64c17.88,0,30.89,9.06,30.89,26,0,17.65-18.11,32.52-31.82,40.64,13.94,17.89,27.41,35.54,40.88,50.63,11.15-15.33,20.2-29.72,27.64-46,1.85,4,5.34,7,8.82,9.29a389.69,389.69,0,0,1-31.35,43.2l29.72,33.44c-4.87-.46-10-1.16-14.86-1.16A128.58,128.58,0,0,0,476,185.87a169.27,169.27,0,0,0-14.63-19.74c-13.7,13.7-28.1,22.76-50.16,22.76-23.93,0-44.36-13.47-44.36-39.25,0-20.44,18.34-39.95,42.27-49.93C400.1,86.93,393.6,75.09,393.6,63.48,393.6,44,408.46,28.64,429.36,28.64ZM420.07,178c15.56,0,26-6,36.7-16.73-15.33-18.58-29.73-36.69-43.67-56-17,10.22-27.17,20.9-27.17,40.18C385.93,162.18,400.1,178,420.07,178Zm9.52-142.84c-12.07,0-19.74,9.52-19.74,21.83,0,9.06,6.27,23,14.63,33.45,15.8-9.76,23.69-24.16,23.69-36C448.17,43.27,441,35.14,429.59,35.14Z" transform="translate(-1 -1.11)"/><path class="cls-1" d="M48.74,118l-7,4.49a20.55,20.55,0,0,0-6-6.62,14.15,14.15,0,0,0-7.63-1.9,13.09,13.09,0,0,0-9.29,3.49,11.4,11.4,0,0,0-3.73,8.68q0,5.08,3.2,7.27c2.13,1.46,3.58,2.42,4.37,2.89A25.78,25.78,0,0,0,26.25,138l2.49,1.18,2.48,1.06,2.49,1.06q17.86,7.8,17.87,21.62a23.3,23.3,0,0,1-7.16,17.31,24.26,24.26,0,0,1-17.69,7q-9.59,0-15.86-5.18T2.23,167l8.52-2.35Q13.95,179,26.61,179a16.08,16.08,0,0,0,11.48-4.37A14.67,14.67,0,0,0,42.7,163.5q0-7.2-4.79-10.22a58.11,58.11,0,0,0-8.58-4.55L27,147.55l-2.36-1.06-2.37-1.07Q13.71,141.66,10,137.1a17.07,17.07,0,0,1-3.72-11.17,18.73,18.73,0,0,1,6.33-14.41,22.5,22.5,0,0,1,15.79-5.79Q41.64,105.73,48.74,118Z" transform="translate(-1 -1.11)"/><path class="cls-1" d="M73.11,151.41V186H64.24V107H78.56a46,46,0,0,1,12,1.24q4.38,1.24,9.82,5.86t5.44,15.15q0,10.29-6.62,16.21t-18.34,5.92Zm0-8h7.1q8.17,0,12.55-3.67c2.91-2.44,4.38-6,4.38-10.65q0-13.84-17.52-13.84H73.11Z" transform="translate(-1 -1.11)"/><path class="cls-1" d="M152.66,163.59H119L109.55,186H100l36.32-82.63L171.81,186,162,186Zm-3.38-8.16L136.15,124,122.7,155.43Z" transform="translate(-1 -1.11)"/><path class="cls-1" d="M238.3,113.54v10.89a39.4,39.4,0,0,0-11.41-7.93A31.36,31.36,0,0,0,214.28,114a30.16,30.16,0,0,0-22.3,9.63,32.61,32.61,0,0,0-.06,45.77,30.42,30.42,0,0,0,22.6,9.57q12.78,0,23.78-10.18v10.82a47.42,47.42,0,0,1-11.47,5.76,38.28,38.28,0,0,1-12.07,1.88,39.79,39.79,0,0,1-29-11.93,38.83,38.83,0,0,1-12.07-28.6,41.18,41.18,0,0,1,41.18-41,38.88,38.88,0,0,1,12.07,1.77A42.17,42.17,0,0,1,238.3,113.54Z" transform="translate(-1 -1.11)"/><path class="cls-1" d="M293,115.2H261v23.55h31.13v8.16H261V177.8h32V186H252.15V107H293Z" transform="translate(-1 -1.11)"/><path class="cls-1" d="M349,118l-7,4.49a20.42,20.42,0,0,0-6-6.62,14.15,14.15,0,0,0-7.63-1.9,13.09,13.09,0,0,0-9.29,3.49,11.4,11.4,0,0,0-3.73,8.68q0,5.08,3.19,7.27t4.38,2.89a25.22,25.22,0,0,0,3.55,1.66l2.49,1.18,2.48,1.06,2.49,1.06q17.86,7.8,17.87,21.62a23.3,23.3,0,0,1-7.16,17.31,24.26,24.26,0,0,1-17.69,7q-9.58,0-15.86-5.18T302.44,167l8.52-2.35Q314.15,179,326.82,179a16.08,16.08,0,0,0,11.48-4.37,14.67,14.67,0,0,0,4.61-11.11q0-7.2-4.79-10.22a58.11,58.11,0,0,0-8.58-4.55l-2.37-1.18-2.36-1.06-2.37-1.07q-8.52-3.76-12.25-8.32a17.08,17.08,0,0,1-3.73-11.17,18.73,18.73,0,0,1,6.33-14.41,22.53,22.53,0,0,1,15.8-5.79Q341.85,105.73,349,118Z" transform="translate(-1 -1.11)"/></svg>