<svg id="raw_copy_2" data-name="raw copy 2" xmlns="http://www.w3.org/2000/svg" viewBox="0 0 24 24"><defs><style>.cls-1{fill:none;}.cls-2{fill:#8dc63f;}</style></defs><rect class="cls-1" width="24" height="24"/><rect class="cls-2" x="10.13" y="11.85" width="3.75" height="4.84"/><polygon class="cls-2" points="12 15.85 7 15.85 9.5 17.85 12 19.85 14.5 17.85 17 15.85 12 15.85"/><path class="cls-2" d="M7.72,4.88v0c0-.43-.3-.66-.81-.66H6.25V5.54h.67C7.42,5.54,7.72,5.28,7.72,4.88Z"/><path class="cls-2" d="M13,5.56v0a1.24,1.24,0,0,0-1.39-1.28h-.57V6.84h.57A1.24,1.24,0,0,0,13,5.56Z"/><path class="cls-2" d="M20,.9H4A2.1,2.1,0,0,0,1.9,3V21A2.1,2.1,0,0,0,4,23.1H20A2.1,2.1,0,0,0,22.1,21V3A2.1,2.1,0,0,0,20,.9ZM15.1,3h4V4.25H16.5v.86h2.39V6.27H16.5V8.08H15.1ZM9.64,3h2c1.8,0,2.85,1,2.85,2.5v0a2.57,2.57,0,0,1-2.88,2.54H9.64ZM4.85,3H7c1.28,0,2.1.66,2.1,1.78h0C9.12,6,8.2,6.63,7,6.63h-.7V8.08H4.85ZM21,21a1,1,0,0,1-1,1H4a1,1,0,0,1-1-1V10H21Z"/></svg>